<svg version="1.1" viewBox="0 0 16 16" xmlns="http://www.w3.org/2000/svg">
<style>.st0{opacity:0} .st0,.st1{fill:#f6f6f6} .st2{fill:#424242} .st3{fill:#00539c} .st4{fill:#f0eff1}</style>
<g id="outline">
	<path class="st0" d="M0 0h16v16H0z"/>
	<path class="st1" d="m10.023 1h-3.437l-1.172-1h-1.828l-3.586 3.586v0.828l2 2-1.414 1.586h1.414v5c0 1.299 1.012 2 1.965 2h8c1.442 0 2.007-1.175 2.035-2v-8.448z" fill="#f6f6f6"/>
</g>
<path id="icon_x5F_bg" class="st2" d="m9.641 2h-2.055l1 1h0.414v3h3v7h-8v-5h-1v5c0 1 0.965 1 0.965 1h8c1 0 1.035-1 1.035-1v-8z" fill="#424242"/>
<path id="color_x5F_action" class="st3" d="m4 1h2l-2 2h4v2h-4l2 2h-2l-3-3z" fill="#00539c"/>
<g id="icon_x5F_fg">
	<path class="st4" d="M9 3h-.586L9 3.586zM9 6V4.414L5.414 8H4v5h8V6z"/>
</g>
</svg>
