<?xml version="1.0" encoding="UTF-8" standalone="no"?>
<svg
   viewBox="0 0 16 16"
   version="1.1"
   id="svg9500"
   sodipodi:docname="Quickview.svg"
   xml:space="preserve"
   inkscape:version="1.2.2 (732a01da63, 2022-12-09)"
   inkscape:export-filename="48x48\Quickview.png"
   inkscape:export-xdpi="288"
   inkscape:export-ydpi="288"
   xmlns:inkscape="http://www.inkscape.org/namespaces/inkscape"
   xmlns:sodipodi="http://sodipodi.sourceforge.net/DTD/sodipodi-0.dtd"
   xmlns="http://www.w3.org/2000/svg"
   xmlns:svg="http://www.w3.org/2000/svg"><defs
     id="defs9504"><style
       id="style3770">.canvas{fill: none; opacity: 0;}.light-defaultgrey-10{fill: #212121; opacity: 0.1;}.light-defaultgrey{fill: #212121; opacity: 1;}.light-teal{fill: #006758; opacity: 1;}.cls-1{opacity:0.75;}</style><style
       id="style2">.canvas{fill: none; opacity: 0;}.light-defaultgrey-10{fill: #212121; opacity: 0.1;}.light-defaultgrey{fill: #212121; opacity: 1;}.cls-1{opacity:0.75;}</style></defs><sodipodi:namedview
     id="namedview9502"
     pagecolor="#ffffff"
     bordercolor="#000000"
     borderopacity="0.25"
     inkscape:showpageshadow="2"
     inkscape:pageopacity="0.0"
     inkscape:pagecheckerboard="0"
     inkscape:deskcolor="#d1d1d1"
     showgrid="true"
     inkscape:zoom="45.254834"
     inkscape:cx="5.2149125"
     inkscape:cy="7.9991455"
     inkscape:window-width="1920"
     inkscape:window-height="1017"
     inkscape:window-x="-8"
     inkscape:window-y="-8"
     inkscape:window-maximized="1"
     inkscape:current-layer="g7214"><inkscape:grid
       type="xygrid"
       id="grid9647" /></sodipodi:namedview><style
     id="style9490">.st0{fill:#f6f6f6} .st1{fill:#424242} .st2{fill:#00539c} .st3{fill:#f0eff1}</style><g
     id="g7214"
     transform="translate(-1)"><path
       class="light-defaultgrey-10"
       d="m 13.5,4.5 v 10 h -11 v -13 h 8 z"
       id="path11"
       style="display:inline;opacity:1;fill:#ffffff;fill-opacity:1" /><path
       class="light-defaultgrey"
       d="M 11,1 H 2 V 15 H 14 V 4 Z M 3,14 V 2 h 7 v 3 h 3 v 9 z"
       id="path13"
       sodipodi:nodetypes="ccccccccccccc"
       style="fill:#595959;fill-opacity:1" /></g><g
     id="g9645"
     transform="rotate(-90,22.631511,12.572474)"><path
       class="st0"
       d="m 21.654324,1.0690715 -2.137,2.137 V 4.034072 l 1.586,1.586 h 0.828 l 2.137,-2.1370005 z"
       id="outline"
       sodipodi:nodetypes="ccccccc"
       style="fill:#ffffff;fill-opacity:1" /><circle
       style="fill:#ffffff;fill-opacity:1;stroke:#ffffff;stroke-width:2.68263;stroke-linecap:square;stroke-opacity:1"
       id="path10842"
       cx="0.440963"
       cy="-24.703985"
       transform="rotate(90)"
       r="2.1586828" /><path
       class="st2"
       d="m 24.692354,-2.1154217 a 2.486,2.486 0 0 0 -2.5,2.48399996 c 0,0.432 0.12,0.83200004 0.313,1.18800004 l -2.313,2.312 1,1.0000003 2.313,-2.3130003 c 0.354,0.194 0.754,0.313 1.187,0.313 A 2.5,2.5 0 0 0 27.192353,0.36857826 2.486,2.486 0 0 0 24.692354,-2.1154217 Z m 0,3.984 a 1.5005001,1.5005001 0 1 1 10e-4,-3.001 1.5005001,1.5005001 0 0 1 -10e-4,3.001 z"
       id="color_x5F_importance"
       style="display:inline;fill:#aa0000;fill-opacity:1" /></g></svg>
