<?xml version="1.0" encoding="UTF-8" standalone="no"?>
<!-- Created with Inkscape (http://www.inkscape.org/) -->

<svg
   width="256"
   height="256"
   viewBox="0 0 67.733332 67.733333"
   version="1.1"
   id="svg5"
   xml:space="preserve"
   inkscape:version="1.2.2 (732a01da63, 2022-12-09)"
   sodipodi:docname="Metapath2.svg"
   inkscape:export-filename="Nuova cartella\128.png"
   inkscape:export-xdpi="48"
   inkscape:export-ydpi="48"
   xmlns:inkscape="http://www.inkscape.org/namespaces/inkscape"
   xmlns:sodipodi="http://sodipodi.sourceforge.net/DTD/sodipodi-0.dtd"
   xmlns:xlink="http://www.w3.org/1999/xlink"
   xmlns="http://www.w3.org/2000/svg"
   xmlns:svg="http://www.w3.org/2000/svg"><sodipodi:namedview
     id="namedview7"
     pagecolor="#ffffff"
     bordercolor="#000000"
     borderopacity="0.25"
     inkscape:showpageshadow="2"
     inkscape:pageopacity="0.0"
     inkscape:pagecheckerboard="0"
     inkscape:deskcolor="#d1d1d1"
     inkscape:document-units="mm"
     showgrid="false"
     showguides="true"
     inkscape:zoom="5.6568543"
     inkscape:cx="213.63464"
     inkscape:cy="197.81312"
     inkscape:window-width="1920"
     inkscape:window-height="1017"
     inkscape:window-x="-8"
     inkscape:window-y="-8"
     inkscape:window-maximized="1"
     inkscape:current-layer="svg5" /><defs
     id="defs2"><linearGradient
       inkscape:collect="always"
       id="linearGradient40798"><stop
         style="stop-color:#ffebb2;stop-opacity:1;"
         offset="0"
         id="stop40794" /><stop
         style="stop-color:#ffebb2;stop-opacity:1;"
         offset="0.4446913"
         id="stop41528" /><stop
         style="stop-color:#ffebb2;stop-opacity:0;"
         offset="1"
         id="stop40796" /></linearGradient><linearGradient
       inkscape:collect="always"
       id="linearGradient25727"><stop
         style="stop-color:#262f35;stop-opacity:1;"
         offset="0"
         id="stop25719" /><stop
         style="stop-color:#646c71;stop-opacity:1;"
         offset="0.44609135"
         id="stop25721" /><stop
         style="stop-color:#646c71;stop-opacity:1;"
         offset="0.70300889"
         id="stop25723" /><stop
         style="stop-color:#262f35;stop-opacity:1;"
         offset="1"
         id="stop25725" /></linearGradient><linearGradient
       inkscape:collect="always"
       id="linearGradient17165"><stop
         style="stop-color:#4b5c67;stop-opacity:1;"
         offset="0"
         id="stop17161" /><stop
         style="stop-color:#8d9ba4;stop-opacity:1;"
         offset="0.40157276"
         id="stop18756" /><stop
         style="stop-color:#8d9ba4;stop-opacity:1;"
         offset="0.75"
         id="stop18758" /><stop
         style="stop-color:#4b5c67;stop-opacity:1;"
         offset="1"
         id="stop17163" /></linearGradient><linearGradient
       inkscape:collect="always"
       id="linearGradient16471"><stop
         style="stop-color:#c6d0d7;stop-opacity:1;"
         offset="0"
         id="stop16467" /><stop
         style="stop-color:#606569;stop-opacity:1;"
         offset="1"
         id="stop16469" /></linearGradient><linearGradient
       inkscape:collect="always"
       id="linearGradient13299"><stop
         style="stop-color:#ffffff;stop-opacity:0.77897573;"
         offset="0"
         id="stop13295" /><stop
         style="stop-color:#c6d0d7;stop-opacity:0;"
         offset="1"
         id="stop13297" /></linearGradient><linearGradient
       inkscape:collect="always"
       id="linearGradient3991"><stop
         style="stop-color:#d18b00;stop-opacity:1;"
         offset="0"
         id="stop3987" /><stop
         style="stop-color:#e09f00;stop-opacity:1;"
         offset="0.26733106"
         id="stop5447" /><stop
         style="stop-color:#e09f00;stop-opacity:1;"
         offset="0.59493059"
         id="stop6175" /><stop
         style="stop-color:#d18b00;stop-opacity:1;"
         offset="1"
         id="stop3989" /></linearGradient><linearGradient
       inkscape:collect="always"
       id="linearGradient1745"><stop
         style="stop-color:#ffd869;stop-opacity:1;"
         offset="0"
         id="stop1741" /><stop
         style="stop-color:#ffd869;stop-opacity:1;"
         offset="0.72295803"
         id="stop3201" /><stop
         style="stop-color:#f5bd27;stop-opacity:1;"
         offset="1"
         id="stop1743" /></linearGradient><linearGradient
       inkscape:collect="always"
       xlink:href="#linearGradient1745"
       id="linearGradient1747"
       x1="73.001442"
       y1="15.367411"
       x2="73.001442"
       y2="55.552895"
       gradientUnits="userSpaceOnUse"
       gradientTransform="translate(-37.041668)" /><linearGradient
       inkscape:collect="always"
       xlink:href="#linearGradient3991"
       id="linearGradient3993"
       x1="27.655897"
       y1="7.387455"
       x2="27.8634"
       y2="18.762066"
       gradientUnits="userSpaceOnUse"
       gradientTransform="translate(-10.735783,-0.4390905)" /><linearGradient
       inkscape:collect="always"
       xlink:href="#linearGradient13299"
       id="linearGradient13303"
       x1="59.305092"
       y1="28.582516"
       x2="51.947762"
       y2="47.275223"
       gradientUnits="userSpaceOnUse"
       gradientTransform="translate(-21.166667)" /><linearGradient
       inkscape:collect="always"
       xlink:href="#linearGradient16471"
       id="linearGradient16473"
       x1="44.457298"
       y1="41.950939"
       x2="43.596348"
       y2="42.765793"
       gradientUnits="userSpaceOnUse"
       gradientTransform="translate(0.02352274,5.2995076)" /><linearGradient
       inkscape:collect="always"
       xlink:href="#linearGradient17165"
       id="linearGradient17167"
       x1="49.248234"
       y1="43.126629"
       x2="50.884068"
       y2="41.529854"
       gradientUnits="userSpaceOnUse"
       gradientTransform="translate(-6.6666666e-8,10.583333)" /><linearGradient
       inkscape:collect="always"
       xlink:href="#linearGradient25727"
       id="linearGradient19452"
       gradientUnits="userSpaceOnUse"
       x1="55.369205"
       y1="49.957275"
       x2="57.382053"
       y2="48.116547"
       gradientTransform="translate(-3.3333334e-8,10.583333)" /><filter
       inkscape:collect="always"
       style="color-interpolation-filters:sRGB"
       id="filter32359"
       x="-0.038333608"
       y="-0.040344168"
       width="1.0766672"
       height="1.0806883"><feGaussianBlur
         inkscape:collect="always"
         stdDeviation="0.42206414"
         id="feGaussianBlur32361" /></filter><filter
       inkscape:collect="always"
       style="color-interpolation-filters:sRGB"
       id="filter34036"
       x="-0.068858443"
       y="-0.066675891"
       width="1.1373999"
       height="1.1336553"><feGaussianBlur
         inkscape:collect="always"
         stdDeviation="0.24409835"
         id="feGaussianBlur34038" /></filter><linearGradient
       inkscape:collect="always"
       xlink:href="#linearGradient40798"
       id="linearGradient40800"
       x1="38.782818"
       y1="9.8481607"
       x2="39.170593"
       y2="39.857994"
       gradientUnits="userSpaceOnUse"
       gradientTransform="translate(0,-0.02338608)" /></defs><g
     inkscape:label="Livello 1"
     inkscape:groupmode="layer"
     id="layer1"
     style="display:inline"><path
       style="display:inline;opacity:1;fill:url(#linearGradient3993);fill-opacity:1;stroke:none;stroke-width:0.264583;stroke-opacity:1"
       d="m 4.113,19.351345 v -8.123174 c 0,0 0.09409,-2.7129517 2.7129517,-2.7129517 H 27.039797 c 0,0 0.859494,-0.1233239 2.405653,1.3889052 1.546161,1.5122285 4.053967,4.0539645 4.053967,4.0539645 v 5.361893 z"
       id="path3259"
       sodipodi:nodetypes="ccscsccc" /><path
       style="display:inline;opacity:1;fill:url(#linearGradient1747);fill-opacity:1;stroke-width:0.264583"
       d="M 4.1129996,19.178846 H 27.552927 c 0,0 0.658638,0.141136 1.693635,-0.8625 1.035,-1.003635 4.281133,-4.202723 4.281133,-4.202723 H 60.78267 c 0,0 2.650221,0.09409 2.650221,2.650225 V 53.47495 c 0,0 0.21955,2.53261 -2.532608,2.53261 H 7.0254473 c 0,0 -2.9124477,0.125455 -2.9124477,-2.912893 0,-3.038351 1e-6,-33.915821 0,-33.915821 z"
       id="path340"
       sodipodi:nodetypes="ccsccscscsc" /><path
       style="display:inline;opacity:1;fill:none;fill-opacity:1;stroke:url(#linearGradient40800);stroke-width:0.396875;stroke-dasharray:none;stroke-opacity:1"
       d="M 4.1129996,19.192204 H 27.552927 c 0,0 0.658638,0.141136 1.693635,-0.8625 1.035,-1.003635 4.281133,-4.202723 4.281133,-4.202723 h 27.055742 c 0,0 2.650221,0.09409 2.650221,2.650225 v 23.285805"
       id="path6178"
       sodipodi:nodetypes="ccscccc" /></g><g
     id="g32353"
     transform="translate(1.5875)"><path
       style="color:#000000;mix-blend-mode:normal;fill:#000000;fill-opacity:0.53;stroke:none;stroke-width:0.105833;stroke-dasharray:none;stroke-opacity:1;filter:url(#filter32359)"
       d="m 32.465096,25.417339 c -6.924667,-0.05478 -12.554688,5.62785 -12.554688,12.552734 1e-6,6.924884 5.629804,12.554687 12.554688,12.554688 6.924885,0 13.870006,-5.629803 13.870007,-12.554688 0,-6.924884 -5.941487,-12.490007 -13.870007,-12.552734 z m 0,1.417969 c 7.537898,0 12.452038,4.976867 12.452038,11.134765 -10e-7,6.157898 -6.29414,11.134766 -12.452038,11.134766 -6.157897,0 -11.134765,-4.976868 -11.134766,-11.134766 0,-6.157898 4.976868,-11.134765 11.134766,-11.134765 z"
       id="path32357"
       sodipodi:nodetypes="ssssssssss" /><path
       style="opacity:1;fill:none;fill-opacity:0.534676;stroke:#000000;stroke-width:1.15;stroke-dasharray:none;stroke-opacity:0.53;filter:url(#filter34036)"
       d="M 55.786354,61.774574 44.748256,50.98043 44.486281,50.002717 41.373855,46.890294"
       id="path33152"
       sodipodi:nodetypes="cccc" /><path
       style="display:inline;opacity:1;fill:url(#linearGradient16473);fill-opacity:1;stroke:none;stroke-width:0.105833;stroke-dasharray:none;stroke-opacity:1"
       d="m 46.374329,48.687276 -1.569053,1.569054 -3.17137,-3.171373 1.569053,-1.569053 z"
       id="path16465" /><path
       style="color:#000000;fill:#9da5aa;fill-opacity:1;stroke:#82969b;stroke-width:0.105833;stroke-dasharray:none;stroke-opacity:1"
       d="m 33.707032,25.0625 c -6.924884,0 -12.554688,5.62785 -12.554688,12.552734 1e-6,6.924884 5.629804,12.554687 12.554688,12.554688 6.924885,0 12.552734,-5.629803 12.552735,-12.554688 0,-6.924884 -5.62785,-12.552734 -12.552735,-12.552734 z m 0,1.417969 c 6.157899,0 11.134766,4.976867 11.134766,11.134765 C 44.841797,43.773132 39.86493,48.75 33.707032,48.75 c -6.157897,0 -11.134765,-4.976868 -11.134766,-11.134766 0,-6.157898 4.976868,-11.134765 11.134766,-11.134765 z"
       id="path7735" /><path
       style="color:#000000;fill:url(#linearGradient13303);fill-opacity:1;stroke:#82969b;stroke-width:0.15;stroke-dasharray:none;stroke-opacity:1"
       d="m 33.707032,26.480469 c 6.157899,0 11.134766,4.976867 11.134766,11.134765 C 44.841797,43.773132 39.86493,48.75 33.707032,48.75 c -6.157897,0 -11.134765,-4.976868 -11.134766,-11.134766 0,-6.157898 4.976868,-11.134765 11.134766,-11.134765 z"
       id="path13262"
       sodipodi:nodetypes="sssss" /><path
       style="opacity:1;fill:url(#linearGradient17167);fill-opacity:1;stroke:none;stroke-width:0.105833;stroke-dasharray:none;stroke-opacity:1"
       d="m 44.457913,50.589497 2.203294,-2.203291 c 0,0 0.216681,-0.06488 0.36822,-0.02428 0.151538,0.0406 0.281194,0.198286 0.281194,0.198286 l 10.698845,10.698845 c 0,0 0.991454,1.047182 -0.269066,2.307702 -1.26052,1.26052 -2.367951,0.329318 -2.367951,0.329318 L 44.561016,51.084646 c 0,0 -0.06475,-0.112486 -0.08908,-0.240304 -0.02433,-0.127818 -0.01402,-0.254845 -0.01402,-0.254845 z"
       id="path17159"
       sodipodi:nodetypes="cczcczcczc" /><path
       id="path19450"
       style="opacity:1;fill:url(#linearGradient19452);fill-opacity:1;stroke:none;stroke-width:0.105833;stroke-dasharray:none;stroke-opacity:1"
       d="m 46.907731,48.34847 c -0.124872,0.0011 -0.246496,0.03772 -0.246496,0.03772 l -2.203484,2.203483 c 0,0 -0.01038,0.126947 0.01395,0.254765 0.02085,0.109518 0.06968,0.203035 0.08372,0.228926 l 2.63033,-2.63033 c -0.04511,-0.03384 -0.0995,-0.06584 -0.156579,-0.08113 -0.03789,-0.01015 -0.07982,-0.01381 -0.12144,-0.01344 z m 10.741463,10.55026 -2.637565,2.636532 0.360702,0.360702 c 0,0 1.107295,0.931339 2.367814,-0.329179 1.260519,-1.260519 0.269234,-2.30787 0.269234,-2.30787 z" /><path
       id="path32287"
       style="color:#000000;fill:#ffffff;fill-opacity:0.597315;stroke:none;stroke-width:0.10235;stroke-dasharray:none;stroke-opacity:1"
       d="m 31.035119,47.998017 c 5.752289,1.541322 11.647137,-1.86248 13.188459,-7.614767 0.05264,-0.196453 0.09916,-0.392853 0.140355,-0.589462 -2.387087,4.088765 -7.284186,6.244099 -12.082443,4.958409 -5.555835,-1.488681 -8.920037,-7.038696 -7.754639,-12.598866 -0.474622,0.812965 -0.850254,1.701844 -1.105886,2.655875 -1.541321,5.752289 1.861867,11.647491 7.614154,13.188811 z" /></g></svg>
