<?xml version="1.0" encoding="UTF-8" standalone="no"?>
<!-- Created with Inkscape (http://www.inkscape.org/) -->

<svg
   width="32"
   height="32"
   viewBox="0 0 8.4666664 8.4666666"
   version="1.1"
   id="svg5"
   xml:space="preserve"
   sodipodi:docname="Options2.svg"
   inkscape:version="1.2.2 (732a01da63, 2022-12-09)"
   inkscape:export-filename="Options2.png"
   inkscape:export-xdpi="384"
   inkscape:export-ydpi="384"
   xmlns:inkscape="http://www.inkscape.org/namespaces/inkscape"
   xmlns:sodipodi="http://sodipodi.sourceforge.net/DTD/sodipodi-0.dtd"
   xmlns="http://www.w3.org/2000/svg"
   xmlns:svg="http://www.w3.org/2000/svg"><sodipodi:namedview
     id="namedview7"
     pagecolor="#ffffff"
     bordercolor="#000000"
     borderopacity="0.25"
     inkscape:showpageshadow="2"
     inkscape:pageopacity="0.0"
     inkscape:pagecheckerboard="0"
     inkscape:deskcolor="#d1d1d1"
     inkscape:document-units="px"
     showgrid="true"
     inkscape:zoom="11.313709"
     inkscape:cx="34.648232"
     inkscape:cy="8.3085047"
     inkscape:window-width="1920"
     inkscape:window-height="1017"
     inkscape:window-x="-8"
     inkscape:window-y="-8"
     inkscape:window-maximized="1"
     inkscape:current-layer="layer1"
     showguides="true"><inkscape:grid
       type="xygrid"
       id="grid314" /></sodipodi:namedview><defs
     id="defs2"><style
       id="style137">.canvas{fill: none; opacity: 0;}.light-defaultgrey-10{fill: #212121; opacity: 0.1;}.light-defaultgrey{fill: #212121; opacity: 1;}.light-blue{fill: #005dba; opacity: 1;}</style><style
       id="style2164">.canvas{fill: none; opacity: 0;}.light-defaultgrey{fill: #212121; opacity: 1;}</style></defs><g
     inkscape:label="Livello 1"
     inkscape:groupmode="layer"
     id="layer1"><g
       id="g5251"
       style="display:inline"
       inkscape:label="Windows"
       transform="translate(0,-0.26458367)"><path
         style="fill:#ffffff;stroke:#7e8384;stroke-width:0.264583;stroke-opacity:1;paint-order:fill markers stroke"
         d="m 0.13229166,0.66145849 2e-8,7.67291651 H 8.3343748 V 0.66145849 Z"
         id="path447"
         sodipodi:nodetypes="ccccc" /><path
         style="fill:#229fe7;fill-opacity:1;stroke:#229fe7;stroke-width:0.264583;stroke-opacity:1;paint-order:fill markers stroke"
         d="M 0.13229166,0.66145835 V 1.7197923 H 8.3343748 V 0.66145835 Z"
         id="path545"
         sodipodi:nodetypes="ccccc" /><path
         style="display:inline;fill:#e81123;fill-opacity:1;stroke:#e81123;stroke-width:0.264583;stroke-opacity:1;paint-order:fill markers stroke"
         d="M 7.2760415,0.66145833 V 1.7197919 H 8.3343749 V 0.66145833 Z"
         id="path1827"
         sodipodi:nodetypes="ccccc" /><path
         id="path5274"
         style="color:#000000;display:inline;fill:#ffffff;-inkscape-stroke:none;paint-order:fill markers stroke"
         d="M 7.6072874,0.79271646 7.4083332,0.99218747 7.6067707,1.190625 7.4083332,1.3885457 7.6072874,1.5880167 7.8052082,1.3890625 8.0041624,1.5880167 8.2010496,1.3885457 8.0036457,1.190625 8.2010496,0.99218747 8.0041624,0.79271646 7.8052082,0.99167077 Z" /><path
         style="fill:#e81123;fill-opacity:1;stroke:#ffffff;stroke-width:0.264583;stroke-dasharray:none;stroke-opacity:1;paint-order:fill markers stroke"
         d="m 5.5562499,1.1906249 h -0.79375"
         id="path2628"
         sodipodi:nodetypes="cc" /><path
         style="fill:none;fill-opacity:1;stroke:#ffffff;stroke-width:0.264583;stroke-dasharray:none;stroke-opacity:1;paint-order:fill markers stroke"
         d="m 6.2177081,0.92604141 -1e-7,0.52916659 h 0.5291667 l 2e-7,-0.52916659 z"
         id="path2697"
         sodipodi:nodetypes="ccccc" /></g><g
       id="g164"
       transform="matrix(0,0.26458333,-0.26458333,0,4.9955606,3.3403646)"
       style="display:inline"><path
         id="path519"
         style="display:inline;fill:#e9e9e9;fill-opacity:1"
         class="light-defaultgrey"
         d="M 6.7226561,1.75 6.251953,4.109375 5.4921874,4.4296875 3.4824218,3.0898437 2.6523436,3.9199218 3.9921874,5.9296874 3.6718749,6.6894531 1.3124999,7.1601562 v 1.1855469 l 2.359375,0.4707031 0.3203125,0.7597656 -1.3398438,2.0097652 0.8300782,0.830079 2.0097656,-1.339844 0.7597656,0.320312 0.4707031,2.359375 H 7.9023436 L 8.3730467,11.396484 9.1328123,11.076172 11.142578,12.416016 11.972656,11.585937 10.632812,9.5761718 10.953125,8.8164062 13.3125,8.3457031 V 7.1601562 L 10.953125,6.6894531 10.632812,5.9296874 11.972656,3.9199218 11.142578,3.0898437 9.1328123,4.4296875 8.3730467,4.109375 7.9023436,1.75 Z m 2.5898437,3.9999999 v 4 H 5.3124999 V 5.75 Z"
         sodipodi:nodetypes="cccccccccccccccccccccccccccccccccccccc"
         transform="translate(-0.9375,0.12500017)" /><path
         id="path148"
         class="light-defaultgrey"
         d="M 5.9023436,0.74999998 5.4218749,3.1796875 3.3632811,1.8007812 l -2,2 1.3789063,2.0585937 -2.42968749,0.4804688 v 2.8261718 l 2.42968749,0.4804688 -1.3789063,2.0585937 2,2 2.0585938,-1.378906 0.4804687,2.429687 h 2.8203125 l 0.4804687,-2.429687 2.0585942,1.378906 2,-2 L 11.882812,9.6464843 14.3125,9.1660155 V 6.3398437 l -2.429688,-0.4804688 1.378907,-2.0585937 -2,-2 L 9.2031248,3.1796875 8.7226561,0.74999998 Z M 6.7226561,1.75 h 1.1796875 l 0.4707031,2.359375 0.7597656,0.3203125 2.0097657,-1.3398438 0.830078,0.8300781 -1.339844,2.0097656 0.320313,0.7597657 2.359375,0.4707031 v 1.1855469 l -2.359375,0.4707031 -0.320313,0.7597656 1.339844,2.0097652 -0.830078,0.830079 -2.0097657,-1.339844 -0.7597656,0.320312 -0.4707031,2.359375 H 6.7226561 L 6.251953,11.396484 5.4921874,11.076172 3.4824218,12.416016 2.6523436,11.585937 3.9921874,9.5761718 3.6718749,8.8164062 1.3124999,8.3457031 V 7.1601562 L 3.6718749,6.6894531 3.9921874,5.9296874 2.6523436,3.9199218 3.4824218,3.0898437 5.4921874,4.4296875 6.251953,4.109375 Z m 0.5898438,3 C 4.6396073,4.7500001 3.3016148,7.9813025 5.1914061,9.8710937 7.0811973,11.760884 10.3125,10.422891 10.3125,7.7499999 10.307558,6.0952022 8.9672976,4.754942 7.3124999,4.75 Z M 7.2480469,5.7460937 C 8.2938337,5.7198627 9.3125,6.5249244 9.3125,7.7499999 c -0.00329,1.1031986 -0.8968013,1.9967052 -1.9999999,2 -1.7819285,0 -2.6739235,-2.1542015 -1.4140625,-3.4140625 C 6.2921435,5.9422309 6.7726888,5.7580166 7.2480469,5.7460937 Z"
         sodipodi:nodetypes="cccccccccccccccccccccccccccccccccccccccccccccccccccccccccccsccsccss"
         style="display:inline;fill:#424242;fill-opacity:1"
         transform="translate(-0.9375,0.12500017)" /></g><path
       class="light-defaultgrey"
       d="M 5.6727922,2.9553909 A 0.86545207,0.86545207 0 0 0 5.4660815,2.9870039 L 5.3219488,2.6618782 5.0800717,2.7692676 5.2244822,3.0949156 A 0.87682916,0.87682916 0 0 0 4.9390023,3.3963315 L 4.6063065,3.2683114 4.5110817,3.514969 4.8429839,3.6430082 a 0.79560207,0.79560207 0 0 0 0.010325,0.4147383 L 4.528183,4.2018793 4.635572,4.4437562 4.9614847,4.2993392 A 0.87603541,0.87603541 0 0 0 5.261578,4.5848522 L 5.1335525,4.9172832 5.3804742,5.0125022 5.5082541,4.680871 A 0.79560207,0.79560207 0 0 0 5.9229924,4.6705454 L 6.0673837,4.9953997 6.3089963,4.8880174 6.1645854,4.5623692 A 0.87682916,0.87682916 0 0 0 6.450363,4.2622694 L 6.7825296,4.390302 6.8777492,4.1433805 6.5461179,4.0155993 A 0.78925207,0.78925207 0 0 0 6.5357858,3.6005968 L 6.8606467,3.4564699 6.7532641,3.2148576 6.42788,3.3592618 A 0.87497707,0.87497707 0 0 0 6.1275163,3.0734905 L 6.2555424,2.7410595 6.0088854,2.6458333 5.8808463,2.9777361 A 0.86730416,0.86730416 0 0 0 5.6727922,2.9553909 Z m 0.036931,1.483324 A 0.60854166,0.60854166 0 1 1 6.3042521,3.8151823 0.61039374,0.61039374 0 0 1 5.7097232,4.4387149 Z"
       id="path2175"
       style="display:inline;stroke-width:0.264583" /><path
       class="light-defaultgrey"
       d="M 7.4092408,5.8208333 V 5.5562499 H 7.1311637 A 0.65431458,0.65431458 0 0 0 7.0345908,5.3244749 L 7.2317054,5.1273604 7.044645,4.9402999 6.8475304,5.1374145 A 0.65325624,0.65325624 0 0 0 6.6154908,5.040577 V 4.7624999 H 6.3509075 V 5.040577 A 0.65325624,0.65325624 0 0 0 6.1188679,5.1374145 L 5.9217533,4.9402999 5.7346927,5.1273604 5.9318075,5.3244749 a 0.65431458,0.65431458 0 0 0 -0.096573,0.231775 H 5.5571573 v 0.2645834 h 0.2780773 a 0.65431458,0.65431458 0 0 0 0.096573,0.231775 L 5.7346927,6.2497228 5.9217533,6.4367833 6.1188679,6.2396687 a 0.65325624,0.65325624 0 0 0 0.2320396,0.096837 V 6.6145833 H 6.6154908 V 6.3365062 A 0.65325624,0.65325624 0 0 0 6.8475304,6.2396687 L 7.044645,6.4367833 7.2317054,6.2497228 7.0345908,6.0526083 a 0.65431458,0.65431458 0 0 0 0.096573,-0.231775 z M 6.4831991,6.0854166 a 0.396875,0.396875 0 1 1 0.396875,-0.396875 0.396875,0.396875 0 0 1 -0.396875,0.396875 z"
       id="path2173"
       style="display:inline;stroke-width:0.264583" /></g></svg>
