<?xml version="1.0" encoding="UTF-8" standalone="no"?>
<!-- Created with Inkscape (http://www.inkscape.org/) -->

<svg
   width="32"
   height="32"
   viewBox="0 0 8.4666664 8.4666666"
   version="1.1"
   id="svg5"
   xml:space="preserve"
   sodipodi:docname="Options.svg"
   inkscape:version="1.2.2 (732a01da63, 2022-12-09)"
   inkscape:export-filename="Options.png"
   inkscape:export-xdpi="384"
   inkscape:export-ydpi="384"
   xmlns:inkscape="http://www.inkscape.org/namespaces/inkscape"
   xmlns:sodipodi="http://sodipodi.sourceforge.net/DTD/sodipodi-0.dtd"
   xmlns="http://www.w3.org/2000/svg"
   xmlns:svg="http://www.w3.org/2000/svg"><sodipodi:namedview
     id="namedview7"
     pagecolor="#ffffff"
     bordercolor="#000000"
     borderopacity="0.25"
     inkscape:showpageshadow="2"
     inkscape:pageopacity="0.0"
     inkscape:pagecheckerboard="0"
     inkscape:deskcolor="#d1d1d1"
     inkscape:document-units="px"
     showgrid="false"
     inkscape:zoom="1"
     inkscape:cx="26.5"
     inkscape:cy="26"
     inkscape:window-width="1920"
     inkscape:window-height="1017"
     inkscape:window-x="-8"
     inkscape:window-y="-8"
     inkscape:window-maximized="1"
     inkscape:current-layer="g164"
     showguides="true"><inkscape:grid
       type="xygrid"
       id="grid314" /></sodipodi:namedview><defs
     id="defs2"><style
       id="style137">.canvas{fill: none; opacity: 0;}.light-defaultgrey-10{fill: #212121; opacity: 0.1;}.light-defaultgrey{fill: #212121; opacity: 1;}.light-blue{fill: #005dba; opacity: 1;}</style><style
       id="style2164">.canvas{fill: none; opacity: 0;}.light-defaultgrey{fill: #212121; opacity: 1;}</style></defs><g
     inkscape:label="Livello 1"
     inkscape:groupmode="layer"
     id="layer1"><g
       id="g5251"
       style="display:inline"
       inkscape:label="Windows"
       transform="translate(0,-0.26458367)"><path
         style="fill:#ffffff;stroke:#7e8384;stroke-width:0.264583;stroke-opacity:1;paint-order:fill markers stroke"
         d="m 0.13229166,0.66145849 2e-8,7.67291651 H 8.3343748 V 0.66145849 Z"
         id="path447"
         sodipodi:nodetypes="ccccc" /><path
         style="fill:#229fe7;fill-opacity:1;stroke:#229fe7;stroke-width:0.264583;stroke-opacity:1;paint-order:fill markers stroke"
         d="M 0.13229166,0.66145835 V 1.7197923 H 8.3343748 V 0.66145835 Z"
         id="path545"
         sodipodi:nodetypes="ccccc" /><path
         style="display:inline;fill:#e81123;fill-opacity:1;stroke:#e81123;stroke-width:0.264583;stroke-opacity:1;paint-order:fill markers stroke"
         d="M 7.2760415,0.66145833 V 1.7197919 H 8.3343749 V 0.66145833 Z"
         id="path1827"
         sodipodi:nodetypes="ccccc" /><path
         id="path5274"
         style="color:#000000;display:inline;fill:#ffffff;-inkscape-stroke:none;paint-order:fill markers stroke"
         d="M 7.6072874,0.79271646 7.4083332,0.99218747 7.6067707,1.190625 7.4083332,1.3885457 7.6072874,1.5880167 7.8052082,1.3890625 8.0041624,1.5880167 8.2010496,1.3885457 8.0036457,1.190625 8.2010496,0.99218747 8.0041624,0.79271646 7.8052082,0.99167077 Z" /><path
         style="fill:#e81123;fill-opacity:1;stroke:#ffffff;stroke-width:0.264583;stroke-dasharray:none;stroke-opacity:1;paint-order:fill markers stroke"
         d="m 5.5562499,1.1906249 h -0.79375"
         id="path2628"
         sodipodi:nodetypes="cc" /><path
         style="fill:none;fill-opacity:1;stroke:#ffffff;stroke-width:0.264583;stroke-dasharray:none;stroke-opacity:1;paint-order:fill markers stroke"
         d="m 6.2177081,0.92604141 -1e-7,0.52916659 h 0.5291667 l 2e-7,-0.52916659 z"
         id="path2697"
         sodipodi:nodetypes="ccccc" /></g><g
       id="g164"
       transform="matrix(0.37797618,0,0,0.37781805,3.151892,1.2789338)"
       style="display:inline"><path
         id="path519"
         style="display:inline;fill:#e9e9e9;fill-opacity:1"
         class="light-defaultgrey"
         d="M 2.2712922,3.2172916 1.8005891,5.5766666 1.0408235,5.8969791 -0.9689421,4.5571353 -1.7990203,5.3872134 -0.4591765,7.396979 -0.779489,8.1567447 -3.138864,8.6274478 v 1.1855469 l 2.359375,0.4707033 0.3203125,0.759765 -1.3398438,2.009766 0.8300782,0.830079 2.0097656,-1.339844 0.7597656,0.320312 0.4707031,2.359375 h 1.1796875 l 0.4707031,-2.359375 0.7597656,-0.320312 2.0097657,1.339844 0.830078,-0.830079 -1.339844,-2.009766 0.320313,-0.759765 2.359375,-0.4707033 V 8.6274478 L 6.5017611,8.1567447 6.1814481,7.396979 7.5212921,5.3872134 6.6912141,4.5571353 4.6814484,5.8969791 3.9216828,5.5766666 3.4509797,3.2172916 Z M 4.8611359,7.2172915 V 11.217292 H 0.861136 V 7.2172916 Z"
         sodipodi:nodetypes="cccccccccccccccccccccccccccccccccccccc" /><path
         id="path148"
         class="light-defaultgrey"
         d="M 1.4509797,2.2172916 0.970511,4.6469791 -1.0880828,3.2680728 l -2,2 1.3789063,2.0585937 -2.4296875,0.4804688 v 2.8261717 l 2.4296875,0.480469 -1.3789063,2.058594 2,2 2.0585938,-1.378906 0.4804687,2.429687 h 2.8203125 l 0.4804687,-2.429687 2.0585942,1.378906 2,-2 -1.378907,-2.058594 2.429688,-0.480469 V 7.8071353 l -2.429688,-0.4804688 1.378907,-2.0585937 -2,-2 L 4.7517609,4.6469791 4.2712922,2.2172916 Z m 0.8203125,1 h 1.1796875 l 0.4707031,2.359375 0.7597656,0.3203125 2.0097657,-1.3398438 0.830078,0.8300781 -1.339844,2.0097656 0.320313,0.7597657 2.359375,0.4707031 v 1.1855469 l -2.359375,0.4707033 -0.320313,0.759765 1.339844,2.009766 -0.830078,0.830079 -2.0097657,-1.339844 -0.7597656,0.320312 -0.4707031,2.359375 H 2.2712922 L 1.8005891,12.863776 1.0408235,12.543464 -0.9689421,13.883308 -1.7990203,13.053229 -0.4591765,11.043463 -0.779489,10.283698 -3.138864,9.8129947 V 8.6274478 L -0.779489,8.1567447 -0.4591765,7.396979 -1.7990203,5.3872134 -0.9689421,4.5571353 1.0408235,5.8969791 1.8005891,5.5766666 Z m 0.5898438,3 c -2.6728926,10e-8 -4.0108851,3.2313025 -2.1210938,5.1210934 1.8897912,1.889791 5.1210939,0.551798 5.1210939,-2.1210935 C 5.8561941,7.5624938 4.5159337,6.2222336 2.861136,6.2172916 Z M 2.796683,7.2133853 C 3.8424698,7.1871543 4.8611361,7.992216 4.8611361,9.2172915 4.8578461,10.32049 3.9643348,11.213997 2.8611362,11.217291 1.0792077,11.217291 0.1872127,9.06309 1.4470737,7.803229 1.8407796,7.4095225 2.3213249,7.2253082 2.796683,7.2133853 Z"
         sodipodi:nodetypes="cccccccccccccccccccccccccccccccccccccccccccccccccccccccccccsccsccss"
         style="display:inline;fill:#424242;fill-opacity:1" /></g></g></svg>
