<?xml version="1.0" encoding="UTF-8" standalone="no"?>
<!-- Created with Inkscape (http://www.inkscape.org/) -->

<svg
   width="32"
   height="32"
   viewBox="0 0 8.4666664 8.4666666"
   version="1.1"
   id="svg5"
   xml:space="preserve"
   sodipodi:docname="Progs.svg"
   inkscape:version="1.2.2 (732a01da63, 2022-12-09)"
   inkscape:export-filename="96.png"
   inkscape:export-xdpi="288"
   inkscape:export-ydpi="288"
   xmlns:inkscape="http://www.inkscape.org/namespaces/inkscape"
   xmlns:sodipodi="http://sodipodi.sourceforge.net/DTD/sodipodi-0.dtd"
   xmlns="http://www.w3.org/2000/svg"
   xmlns:svg="http://www.w3.org/2000/svg"><sodipodi:namedview
     id="namedview7"
     pagecolor="#ffffff"
     bordercolor="#000000"
     borderopacity="0.25"
     inkscape:showpageshadow="2"
     inkscape:pageopacity="0.0"
     inkscape:pagecheckerboard="0"
     inkscape:deskcolor="#d1d1d1"
     inkscape:document-units="px"
     showgrid="false"
     inkscape:zoom="1"
     inkscape:cx="-68"
     inkscape:cy="16"
     inkscape:window-width="1920"
     inkscape:window-height="1017"
     inkscape:window-x="-8"
     inkscape:window-y="-8"
     inkscape:window-maximized="1"
     inkscape:current-layer="level-1"
     showguides="true"><inkscape:grid
       type="xygrid"
       id="grid314" /></sodipodi:namedview><defs
     id="defs2"><style
       id="style2">.canvas{fill: none; opacity: 0;}.light-defaultgrey{fill: #212121; opacity: 1;}.light-defaultgrey-10{fill: #212121; opacity: 0.1;}.cls-1{opacity:0.75;}</style></defs><g
     inkscape:label="Livello 1"
     inkscape:groupmode="layer"
     id="layer1"><g
       id="g5251"
       style="display:inline"
       inkscape:label="Windows"
       transform="translate(0,-0.26458367)"><path
         style="fill:#ffffff;stroke:#7e8384;stroke-width:0.264583;stroke-opacity:1;paint-order:fill markers stroke"
         d="m 0.13229166,0.66145849 2e-8,7.67291651 H 8.3343748 V 0.66145849 Z"
         id="path447"
         sodipodi:nodetypes="ccccc" /><path
         style="fill:#229fe7;fill-opacity:1;stroke:#229fe7;stroke-width:0.264583;stroke-opacity:1;paint-order:fill markers stroke"
         d="M 0.13229166,0.66145835 V 1.7197923 H 8.3343748 V 0.66145835 Z"
         id="path545"
         sodipodi:nodetypes="ccccc" /><path
         style="display:inline;fill:#e81123;fill-opacity:1;stroke:#e81123;stroke-width:0.264583;stroke-opacity:1;paint-order:fill markers stroke"
         d="M 7.2760415,0.66145833 V 1.7197919 H 8.3343749 V 0.66145833 Z"
         id="path1827"
         sodipodi:nodetypes="ccccc" /><path
         id="path5274"
         style="color:#000000;display:inline;fill:#ffffff;-inkscape-stroke:none;paint-order:fill markers stroke"
         d="M 7.6072874,0.79271646 7.4083332,0.99218747 7.6067707,1.190625 7.4083332,1.3885457 7.6072874,1.5880167 7.8052082,1.3890625 8.0041624,1.5880167 8.2010496,1.3885457 8.0036457,1.190625 8.2010496,0.99218747 8.0041624,0.79271646 7.8052082,0.99167077 Z" /><path
         style="fill:#e81123;fill-opacity:1;stroke:#ffffff;stroke-width:0.264583;stroke-dasharray:none;stroke-opacity:1;paint-order:fill markers stroke"
         d="m 5.5562499,1.1906249 h -0.79375"
         id="path2628"
         sodipodi:nodetypes="cc" /><path
         style="fill:none;fill-opacity:1;stroke:#ffffff;stroke-width:0.264583;stroke-dasharray:none;stroke-opacity:1;paint-order:fill markers stroke"
         d="m 6.2177081,0.92604141 -1e-7,0.52916659 h 0.5291667 l 2e-7,-0.52916659 z"
         id="path2697"
         sodipodi:nodetypes="ccccc" /></g><g
       id="level-1"
       transform="matrix(0.26458333,0,0,0.26458333,1.5875,5.0270832)"><path
         class="light-defaultgrey"
         d="m 7.4999997,-4.9999998 h -7.99999981 l -0.49999999,0.5 v 7 l 0.49999999,0.5 H 7.4999997 l 0.5,-0.5 v -7 z m -7.49999981102362,7 V -2.9999999 H 6.9999997 v 5.0000001 z"
         id="path17"
         sodipodi:nodetypes="cccccccccccccc"
         style="fill:#595959;fill-opacity:1" /><path
         class="light-defaultgrey"
         d="m 3.9999999,-7.9999997 v 1.9999999 h -1 v -2.4999999 l 0.5,-0.5000002 H 11 v 1.0000002 z"
         id="path1087"
         style="opacity:1;fill:#595959;fill-opacity:1"
         sodipodi:nodetypes="cccccccc" /><rect
         style="opacity:0.655422;fill:#ffd869;fill-opacity:1;stroke:none;stroke-width:1.10622;stroke-linecap:square;stroke-dasharray:none;paint-order:fill markers stroke"
         id="rect8773"
         width="8"
         height="6"
         x="12.5"
         y="-9.5" /><path
         class="light-defaultgrey"
         d="M 15,-11 H 12.5 L 12,-9.9999998 v 6.5000001 l 0.5,0.5 h 8 l 0.5,-0.5 v -6.5000001 h -5 z m -2,7.0000003 v -5.0000001 h 7 v 5.0000001 z"
         id="path21"
         style="fill:#996f00;fill-opacity:1"
         sodipodi:nodetypes="ccccccccccccccc" /><path
         class="light-defaultgrey"
         d="m 12,3.0000002 v 5.5000001 l 0.5,0.5 h 8 l 0.5,-0.5 V 3.0000002 Z m 1,5.0000001 V 3.0000002 h 7 v 5.0000001 z"
         id="path1089"
         sodipodi:nodetypes="cccccccccccc"
         style="fill:#595959;fill-opacity:1" /><path
         class="light-defaultgrey"
         d="m 21,1.0000001 h -9 v 2.0000001 h 9 z"
         id="path1091"
         sodipodi:nodetypes="ccccc"
         style="fill:#229fe7;fill-opacity:1" /><path
         class="light-defaultgrey"
         d="m 21,1.0000001 h -2 v 2.0000001 h 2 z"
         id="path4072"
         sodipodi:nodetypes="ccccc"
         style="fill:#e81123;fill-opacity:1;stroke-width:0.577352" /><g
         id="g3302"
         transform="matrix(1.8863988,0,0,1.9089496,12.526304,9.4571665)" /><path
         class="light-defaultgrey"
         d="M 3.9999999,6 V 4.0000002 h -1 V 6.5 l 0.5,0.5000002 H 11 V 6 Z"
         id="path8719"
         style="opacity:1;fill:#595959;fill-opacity:1"
         sodipodi:nodetypes="cccccccc" /></g></g></svg>
