<?xml version="1.0" encoding="UTF-8" standalone="no"?>
<svg
   viewBox="0 0 16 16"
   enable-background="new 0 0 16 16"
   version="1.1"
   id="svg9"
   sodipodi:docname="WordWrap.svg"
   inkscape:version="1.2 (dc2aedaf03, 2022-05-15)"
   inkscape:export-filename="WordWrap.png"
   inkscape:export-xdpi="96"
   inkscape:export-ydpi="96"
   xmlns:inkscape="http://www.inkscape.org/namespaces/inkscape"
   xmlns:sodipodi="http://sodipodi.sourceforge.net/DTD/sodipodi-0.dtd"
   xmlns="http://www.w3.org/2000/svg"
   xmlns:svg="http://www.w3.org/2000/svg">
  <defs
     id="defs13" />
  <sodipodi:namedview
     id="namedview11"
     pagecolor="#ffffff"
     bordercolor="#000000"
     borderopacity="0.25"
     inkscape:showpageshadow="2"
     inkscape:pageopacity="0.0"
     inkscape:pagecheckerboard="0"
     inkscape:deskcolor="#d1d1d1"
     showgrid="true"
     inkscape:zoom="11.313709"
     inkscape:cx="36.327611"
     inkscape:cy="9.8111066"
     inkscape:window-width="1920"
     inkscape:window-height="1017"
     inkscape:window-x="-8"
     inkscape:window-y="-8"
     inkscape:window-maximized="1"
     inkscape:current-layer="svg9">
    <inkscape:grid
       type="xygrid"
       id="grid864" />
  </sodipodi:namedview>
  <style
     type="text/css"
     id="style2">.icon-canvas-transparent{opacity:0;fill:#F6F6F6;} .icon-vs-out{fill:#F6F6F6;} .icon-vs-bg{fill:#424242;}</style>
  <path
     d="m 2.7104096,9.9733168 c 0.115515,-0.135205 0.2546581,-0.240219 0.4148039,-0.313728 0.2861621,-0.1312673 0.7180307,-0.1378306 1.0055055,-0.02363 0.1365177,0.05513 0.2677848,0.131267 0.4200546,0.241531 L 4.9826421,10.218784 V 8.7197165 L 4.8566258,8.6383309 C 4.71617,8.5635087 4.5481482,8.4991879 4.357811,8.4453684 4.1451584,8.3862982 3.9141284,8.3561068 3.668659,8.3561068 c -0.4043025,0 -0.7784136,0.074822 -1.1105192,0.2205286 C 2.2299722,8.7210292 1.9451227,8.9310565 1.708842,9.2001539 1.477812,9.4640007 1.2992889,9.7816668 1.1798359,10.141339 1.0616955,10.498385 1,10.889561 1,11.316179 c 0,0.379362 0.056445,0.736408 0.1693345,1.060638 0.1142023,0.326855 0.2782861,0.618267 0.4909387,0.855861 0.21134,0.242844 0.4738741,0.437119 0.7836643,0.578887 0.3045395,0.136518 0.6471465,0.203464 1.0212576,0.203464 0.3058522,0 0.569699,-0.03675 0.804667,-0.110264 0.2205286,-0.06957 0.4187419,-0.158833 0.6117044,-0.28485 l 0.1023883,-0.08007 v -1.166964 l -0.2625341,0.124703 -0.099763,0.03413 -0.1680219,0.06432 -0.2979761,0.11814 -0.2861622,0.07745 C 3.6030255,12.848065 3.3194887,12.824437 3.083208,12.716798 2.9230622,12.647227 2.7878571,12.547464 2.6815308,12.421447 2.5633905,12.282304 2.4715036,12.114282 2.4124334,11.927883 c -0.065633,-0.203464 -0.099763,-0.437119 -0.099763,-0.694402 0,-0.275661 0.036755,-0.523756 0.1089517,-0.735096 0.070884,-0.207402 0.1693345,-0.385925 0.2887875,-0.5250682 z"
     id="path862"
     style="stroke-width:1.31267;fill:#595959;fill-opacity:1" />
  <g
     id="g2386"
     transform="matrix(1.1250956,0,0,1.1250956,-0.71701383,-1.258982)">
    <path
       d="M 8.362,5.17 C 8.362,5.487 8.331,5.776 8.266,6.056 8.2,6.331 8.103,6.575 7.974,6.774 7.843,6.982 7.679,7.145 7.487,7.26 7.293,7.377 7.066,7.438 6.811,7.438 6.689,7.438 6.579,7.422 6.481,7.391 6.375,7.354 6.287,7.308 6.208,7.251 L 6.008,7.062 V 7.343 H 5.09 V 1.119 H 6.008 V 3.598 L 6.022,3.58 C 6.099,3.48 6.182,3.399 6.273,3.331 6.369,3.26 6.471,3.206 6.585,3.167 6.7,3.128 6.827,3.109 6.962,3.109 7.21,3.109 7.425,3.168 7.604,3.282 7.779,3.394 7.926,3.548 8.04,3.741 8.149,3.928 8.232,4.149 8.285,4.397 8.336,4.645 8.362,4.903 8.362,5.17 Z"
       id="path858"
       style="fill:#595959;fill-opacity:1" />
    <path
       d="M 7.374,4.673 C 7.34,4.533 7.294,4.418 7.231,4.319 7.172,4.228 7.1,4.157 7.018,4.11 6.936,4.063 6.84,4.04 6.734,4.04 6.626,4.04 6.533,4.062 6.445,4.111 6.358,4.158 6.283,4.226 6.217,4.319 6.148,4.413 6.097,4.522 6.06,4.655 6.021,4.787 6.001,4.938 6.001,5.102 v 0.517 c 0,0.127 0.019,0.247 0.053,0.358 C 6.09,6.088 6.138,6.184 6.196,6.26 6.258,6.339 6.329,6.401 6.407,6.443 6.582,6.54 6.802,6.527 6.972,6.429 7.062,6.379 7.14,6.3 7.205,6.192 7.274,6.083 7.328,5.94 7.365,5.768 7.404,5.594 7.424,5.387 7.424,5.155 7.423,4.979 7.405,4.816 7.374,4.673 Z"
       id="path860"
       style="fill:#ffffff;fill-opacity:1" />
  </g>
  <g
     id="g2390"
     transform="matrix(1.0456415,0,0,1.0456415,-0.37668279,-0.69759543)">
    <path
       d="M 4.144,4.088 C 4.203,4.285 4.233,4.514 4.233,4.769 V 7.362 H 3.226 V 7.017 C 3.133,7.122 3.031,7.21 2.918,7.279 2.727,7.398 2.502,7.458 2.248,7.458 2.048,7.458 1.875,7.428 1.72,7.365 1.562,7.302 1.429,7.213 1.324,7.099 1.216,6.985 1.135,6.85 1.082,6.695 1.027,6.537 1,6.373 1,6.188 1,6.01 1.024,5.84 1.071,5.687 1.121,5.527 1.198,5.384 1.3,5.262 1.403,5.137 1.533,5.035 1.697,4.951 1.857,4.87 2.049,4.814 2.267,4.785 L 3.23,4.64 C 3.22,4.432 3.17,4.279 3.083,4.185 2.982,4.079 2.841,4.027 2.652,4.027 2.446,4.027 2.243,4.066 2.048,4.14 1.847,4.218 1.67,4.319 1.521,4.443 L 1.353,4.582 V 3.526 L 1.397,3.495 1.631,3.37 1.961,3.253 2.342,3.163 C 2.774,3.089 3.123,3.127 3.397,3.239 3.588,3.315 3.748,3.427 3.871,3.568 3.992,3.713 4.084,3.887 4.144,4.088 Z"
       id="path1642"
       style="fill:#595959;fill-opacity:1" />
    <path
       d="M 2.572,5.561 C 2.452,5.577 2.35,5.601 2.268,5.634 L 2.106,5.743 2.029,5.884 2.004,6.096 2.039,6.283 2.133,6.422 2.288,6.515 C 2.441,6.573 2.65,6.561 2.801,6.488 2.889,6.444 2.963,6.385 3.03,6.309 3.093,6.235 3.144,6.145 3.179,6.041 3.215,5.932 3.233,5.82 3.233,5.701 V 5.464 Z"
       id="path856"
       style="fill:#ffffff;fill-opacity:1" />
  </g>
  <path
     d="m 16,3 v 9 h -6 l 2,2 H 10 L 7,11 10,8 h 2 l -2,2 h 4 V 5 H 11 V 3 Z"
     id="path6"
     style="fill:#005dba;fill-opacity:1"
     sodipodi:nodetypes="cccccccccccccc" />
</svg>
