<svg xmlns="http://www.w3.org/2000/svg" viewBox="0 0 16 16"><defs><style>.icon-canvas-transparent-,.icon-vs-out{fill:#f6f6f6;}.icon-canvas-transparent-{opacity:0;}.icon-vs-bg{fill:#424242;}.icon-vs-fg{fill:#f0eff1;}.icon-vs-blue{fill:#1ba1e2;}.icon-vs-green{fill:#393;}.icon-vs-red{fill:#e51400;}</style></defs><title>ColorDialog</title><path class="icon-canvas-transparent-" d="M16,16H0V0H16Z"/><path class="icon-vs-out" d="M15,15H1V1H15Z"/><path class="icon-vs-bg" d="M6.988,1H1V12H2V4H6.988ZM14,8v6H12v1h3V8ZM8,6,5,9,4,11l1,1,2-1,3-3ZM6,9,8,7,9,8,7,10Zm8-7a1.444,1.444,0,0,0-2,0L10,4,9,3,8,4l4,4,1-1L12,6l2-2A1.437,1.437,0,0,0,14,2Z"/><path class="icon-vs-fg" d="M14,6.586,13.414,6,14,5.414ZM2.783,11.2,4.178,8.408,7.586,5l-1-1H2v9H4.585ZM12,9.414l-1-1L7.593,11.822,5.238,13H14V7.414ZM7,10,6,9,8,7,9,8Z"/><rect class="icon-vs-blue" x="9" y="13" width="2" height="2"/><rect class="icon-vs-green" x="5" y="13" width="2" height="2"/><rect class="icon-vs-red" x="1" y="13" width="2" height="2"/></svg>