<?xml version="1.0" encoding="UTF-8" standalone="no"?>
<!-- Created with Inkscape (http://www.inkscape.org/) -->

<svg
   width="256"
   height="256"
   viewBox="0 0 67.733332 67.733333"
   version="1.1"
   id="svg5"
   xml:space="preserve"
   inkscape:version="1.2 (dc2aedaf03, 2022-05-15)"
   sodipodi:docname="Cut.svg"
   inkscape:export-filename="Cut.png"
   inkscape:export-xdpi="12"
   inkscape:export-ydpi="12"
   xmlns:inkscape="http://www.inkscape.org/namespaces/inkscape"
   xmlns:sodipodi="http://sodipodi.sourceforge.net/DTD/sodipodi-0.dtd"
   xmlns:xlink="http://www.w3.org/1999/xlink"
   xmlns="http://www.w3.org/2000/svg"
   xmlns:svg="http://www.w3.org/2000/svg"><sodipodi:namedview
     id="namedview7"
     pagecolor="#ffffff"
     bordercolor="#000000"
     borderopacity="0.25"
     inkscape:showpageshadow="2"
     inkscape:pageopacity="0.0"
     inkscape:pagecheckerboard="0"
     inkscape:deskcolor="#d1d1d1"
     inkscape:document-units="mm"
     showgrid="false"
     inkscape:zoom="1.0544998"
     inkscape:cx="122.33288"
     inkscape:cy="125.65199"
     inkscape:window-width="958"
     inkscape:window-height="1008"
     inkscape:window-x="-7"
     inkscape:window-y="0"
     inkscape:window-maximized="0"
     inkscape:current-layer="svg5"
     showguides="true" /><defs
     id="defs2"><linearGradient
       inkscape:collect="always"
       id="linearGradient4729"><stop
         style="stop-color:#365092;stop-opacity:1;"
         offset="0"
         id="stop4725" /><stop
         style="stop-color:#8acaff;stop-opacity:1;"
         offset="1"
         id="stop4727" /></linearGradient><linearGradient
       inkscape:collect="always"
       id="linearGradient15883"><stop
         style="stop-color:#68798c;stop-opacity:1;"
         offset="0"
         id="stop15879" /><stop
         style="stop-color:#eef3f8;stop-opacity:1;"
         offset="1"
         id="stop15881" /></linearGradient><linearGradient
       inkscape:collect="always"
       id="linearGradient15041"><stop
         style="stop-color:#c9d5e2;stop-opacity:1;"
         offset="0"
         id="stop15037" /><stop
         style="stop-color:#f7fafd;stop-opacity:1;"
         offset="0.5"
         id="stop15043" /><stop
         style="stop-color:#c9d5e2;stop-opacity:1;"
         offset="1"
         id="stop15039" /></linearGradient><linearGradient
       inkscape:collect="always"
       id="linearGradient12752"><stop
         style="stop-color:#c9d5e2;stop-opacity:1;"
         offset="0"
         id="stop12748" /><stop
         style="stop-color:#f7fafd;stop-opacity:1;"
         offset="1"
         id="stop12750" /></linearGradient><linearGradient
       inkscape:collect="always"
       id="linearGradient4709"><stop
         style="stop-color:#365092;stop-opacity:1;"
         offset="0"
         id="stop4705" /><stop
         style="stop-color:#8acaff;stop-opacity:1;"
         offset="1"
         id="stop4707" /></linearGradient><filter
       style="color-interpolation-filters:sRGB"
       inkscape:label="Drop Shadow"
       id="filter19373"
       x="-0.025663521"
       y="-0.035831481"
       width="1.0869708"
       height="1.1214288"><feFlood
         flood-opacity="0.384314"
         flood-color="rgb(0,0,0)"
         result="flood"
         id="feFlood19363" /><feComposite
         in="flood"
         in2="SourceGraphic"
         operator="in"
         result="composite1"
         id="feComposite19365" /><feGaussianBlur
         in="composite1"
         stdDeviation="0.3"
         result="blur"
         id="feGaussianBlur19367" /><feOffset
         dx="1"
         dy="1"
         result="offset"
         id="feOffset19369" /><feComposite
         in="SourceGraphic"
         in2="offset"
         operator="over"
         result="composite2"
         id="feComposite19371" /></filter><linearGradient
       inkscape:collect="always"
       xlink:href="#linearGradient4729"
       id="linearGradient4711"
       x1="28.457733"
       y1="28.68121"
       x2="11.771523"
       y2="44.990284"
       gradientUnits="userSpaceOnUse"
       gradientTransform="matrix(1.0955617,0,0,1.0955617,-0.36466347,10.784818)" /><linearGradient
       inkscape:collect="always"
       xlink:href="#linearGradient4709"
       id="linearGradient6406"
       gradientUnits="userSpaceOnUse"
       gradientTransform="matrix(-1.1029547,0,0,1.0948076,68.653206,10.808236)"
       x1="11.074147"
       y1="43.118408"
       x2="29.34203"
       y2="28.042271" /><linearGradient
       inkscape:collect="always"
       xlink:href="#linearGradient12752"
       id="linearGradient12754"
       x1="28.612953"
       y1="11.859425"
       x2="40.936291"
       y2="42.344849"
       gradientUnits="userSpaceOnUse"
       gradientTransform="matrix(1.0955617,0,0,1.0955617,-7.374261,-4.5888171)" /><linearGradient
       inkscape:collect="always"
       xlink:href="#linearGradient15041"
       id="linearGradient15035"
       gradientUnits="userSpaceOnUse"
       gradientTransform="matrix(-0.95998577,-0.06026144,-0.06190632,1.0514898,74.854548,-2.3555137)"
       x1="35.942467"
       y1="36.060287"
       x2="29.402931"
       y2="12.279117" /><linearGradient
       inkscape:collect="always"
       xlink:href="#linearGradient15883"
       id="linearGradient16025"
       x1="31.31151"
       y1="40.453217"
       x2="34.524544"
       y2="36.846405"
       gradientUnits="userSpaceOnUse" /><filter
       inkscape:collect="always"
       style="color-interpolation-filters:sRGB"
       id="filter18843"
       x="-0.56135527"
       y="-0.1943378"
       width="2.1227105"
       height="1.3886756"><feGaussianBlur
         inkscape:collect="always"
         stdDeviation="0.30583874"
         id="feGaussianBlur18845" /></filter></defs><style
     id="style6939">.st0{opacity:0} .st0,.st1{fill:#f6f6f6} .st2{fill:none} .st3{fill:#424242} .st4{fill:#f0eff1}</style><style
     id="style38292">.icon-canvas-transparent{opacity:0;fill:#f6f6f6} .icon-vs-out{fill:#f6f6f6} .icon-vs-fg{fill:#f0eff1} .icon-vs-action-blue{fill:#00539c}</style><path
     id="path1672"
     style="display:inline;fill:url(#linearGradient4711);fill-opacity:1;stroke:#365092;stroke-width:1.5875;stroke-linecap:square;stroke-dasharray:none;stroke-opacity:1"
     d="m 33.247888,37.731558 c 0,0 -5.071674,2.118192 -5.780362,3.015866 -1.030824,1.305705 -2.198916,3.917172 -2.198916,3.917172 0,0 -0.274801,0.481139 -1.099458,0.687303 -0.824657,0.206165 -1.306102,-0.06907 -1.306102,-0.06907 0,0 -5.084966,-1.92402 -8.177431,1.374606 -3.092461,3.298629 -5.4978085,8.59029 -4.260823,12.301246 1.236985,3.710955 5.085272,8.246279 7.902848,6.528243 2.817578,-1.718033 6.459614,-7.90251 8.108928,-12.30068 1.649315,-4.398168 4.05453,-8.453103 5.016629,-9.002872 0.9621,-0.54977 2.40556,-1.580683 2.40556,-1.580683 l -0.610873,-4.87113 z M 18.528061,49.065259 c 0.363248,-0.0062 0.755417,0.05349 1.174189,0.203813 2.680136,0.962099 3.091988,3.504592 1.580117,8.108926 -1.51187,4.604334 -5.222496,4.192052 -7.077972,1.237031 -1.85548,-2.95502 1.237032,-7.559197 1.237032,-7.559197 0,0 1.125098,-1.956939 3.086634,-1.990573 z"
     sodipodi:nodetypes="cscscsssssccccssscc"
     transform="translate(-0.2807058,0.22991411)" /><path
     id="path6398"
     style="display:inline;fill:url(#linearGradient6406);fill-opacity:1;stroke:#365092;stroke-width:1.5875;stroke-linecap:square;stroke-dasharray:none;stroke-opacity:1"
     d="m 34.813833,37.736428 c 0,0 5.105898,2.116734 5.819368,3.01379 1.03778,1.304807 2.213755,3.914476 2.213755,3.914476 0,0 0.276655,0.480808 1.106877,0.68683 0.830223,0.206023 1.314916,-0.06902 1.314916,-0.06902 0,0 5.11928,-1.922696 8.232613,1.373659 3.11333,3.296359 5.534909,8.584377 4.289576,12.292779 -1.245333,3.7084 -5.119588,8.240603 -7.956178,6.52375 -2.836591,-1.716851 -6.503204,-7.897071 -8.163647,-12.292213 -1.660446,-4.395141 -4.081891,-8.447285 -5.050483,-8.996676 -0.968592,-0.549392 -2.421793,-1.579595 -2.421793,-1.579595 l 0.614996,-4.867777 z m 14.819158,11.3259 c -0.365699,-0.0062 -0.760515,0.05345 -1.182113,0.203672 -2.698221,0.961437 -3.112852,3.50218 -1.590779,8.103345 1.522072,4.601165 5.257738,4.189166 7.125735,1.23618 1.868,-2.952986 -1.245379,-7.553994 -1.245379,-7.553994 0,0 -1.132691,-1.955592 -3.107464,-1.989203 z"
     sodipodi:nodetypes="cscscsssssccccssscc"
     transform="translate(-0.2807058,0.22991411)" /><path
     style="display:inline;fill:url(#linearGradient15035);fill-opacity:1;stroke:#686868;stroke-width:1.5875;stroke-linecap:square;stroke-dasharray:none;stroke-opacity:1"
     d="M 32.437504,37.482731 46.7663,2.5013729 c 0,0 1.812426,3.0928083 1.056895,6.686423 -0.755533,3.5936161 -7.54974,26.6021971 -8.485978,28.1322451 -0.93624,1.530046 -1.188702,3.765026 -3.513875,3.221863 -2.325171,-0.543164 -3.385838,-3.059173 -3.385838,-3.059173 z"
     id="path15033"
     transform="translate(-0.2807058,0.22991411)" /><path
     style="display:inline;mix-blend-mode:normal;fill:#000000;fill-opacity:0.771812;stroke:#000000;stroke-width:1.614;stroke-linecap:square;stroke-dasharray:none;stroke-opacity:0.60179;filter:url(#filter18843)"
     d="M 37.876886,39.942331 34.740525,30.882782"
     id="path18841"
     transform="matrix(0.73564512,-0.03688853,0.03862686,0.77031151,7.9383864,9.8221072)"
     sodipodi:nodetypes="cc" /><path
     style="display:inline;fill:url(#linearGradient12754);fill-opacity:1;stroke:#686868;stroke-width:1.5875;stroke-linecap:square;stroke-dasharray:none;stroke-opacity:1"
     d="M 38.188116,39.530409 24.237646,2.2833362 c 0,0 -2.267813,3.0924694 -1.64932,6.8721529 0.618496,3.7796849 6.803434,28.1071079 7.765536,29.7564249 0.962101,1.649315 1.099543,3.985849 3.779682,3.573519 2.68014,-0.412328 4.054572,-2.955024 4.054572,-2.955024 z"
     id="path6962"
     transform="translate(-0.2807058,0.22991411)" /><circle
     style="display:inline;fill:url(#linearGradient16025);fill-opacity:1;stroke:#686868;stroke-width:1.09907917;stroke-linecap:square;stroke-dasharray:none;stroke-opacity:1"
     id="path15149"
     cx="33.905983"
     cy="37.505039"
     r="1.725068"
     transform="translate(-0.2807058,0.22991411)" /></svg>
