<?xml version="1.0" encoding="UTF-8" standalone="no"?>
<!-- Created with Inkscape (http://www.inkscape.org/) -->

<svg
   width="256"
   height="256"
   viewBox="0 0 67.733332 67.733333"
   version="1.1"
   id="svg5"
   xml:space="preserve"
   inkscape:version="1.2 (dc2aedaf03, 2022-05-15)"
   sodipodi:docname="Open.svg"
   inkscape:export-filename="Open.png"
   inkscape:export-xdpi="12"
   inkscape:export-ydpi="12"
   xmlns:inkscape="http://www.inkscape.org/namespaces/inkscape"
   xmlns:sodipodi="http://sodipodi.sourceforge.net/DTD/sodipodi-0.dtd"
   xmlns:xlink="http://www.w3.org/1999/xlink"
   xmlns="http://www.w3.org/2000/svg"
   xmlns:svg="http://www.w3.org/2000/svg"><sodipodi:namedview
     id="namedview7"
     pagecolor="#ffffff"
     bordercolor="#000000"
     borderopacity="0.25"
     inkscape:showpageshadow="2"
     inkscape:pageopacity="0.0"
     inkscape:pagecheckerboard="0"
     inkscape:deskcolor="#d1d1d1"
     inkscape:document-units="mm"
     showgrid="false"
     inkscape:zoom="2.1089996"
     inkscape:cx="180.18022"
     inkscape:cy="109.53061"
     inkscape:window-width="1920"
     inkscape:window-height="1017"
     inkscape:window-x="-8"
     inkscape:window-y="-8"
     inkscape:window-maximized="1"
     inkscape:current-layer="svg5"
     showguides="true" /><defs
     id="defs2"><linearGradient
       inkscape:collect="always"
       id="linearGradient4798"><stop
         style="stop-color:#fae676;stop-opacity:0.99607843;"
         offset="0"
         id="stop4794" /><stop
         style="stop-color:#fac949;stop-opacity:0.99607843;"
         offset="1"
         id="stop4796" /></linearGradient><linearGradient
       inkscape:collect="always"
       id="linearGradient3276"><stop
         style="stop-color:#fae676;stop-opacity:0.99607843;"
         offset="0"
         id="stop3272" /><stop
         style="stop-color:#fac949;stop-opacity:0.99607843;"
         offset="0.30826864"
         id="stop6258" /><stop
         style="stop-color:#806600;stop-opacity:0.99607843;"
         offset="1"
         id="stop3274" /></linearGradient><linearGradient
       inkscape:collect="always"
       id="linearGradient9188"><stop
         style="stop-color:#2967d5;stop-opacity:1;"
         offset="0"
         id="stop9184" /><stop
         style="stop-color:#63b7fd;stop-opacity:1;"
         offset="1"
         id="stop9186" /></linearGradient><filter
       style="color-interpolation-filters:sRGB"
       inkscape:label="Drop Shadow"
       id="filter19373"
       x="-0.025663521"
       y="-0.035831481"
       width="1.0869708"
       height="1.1214288"><feFlood
         flood-opacity="0.384314"
         flood-color="rgb(0,0,0)"
         result="flood"
         id="feFlood19363" /><feComposite
         in="flood"
         in2="SourceGraphic"
         operator="in"
         result="composite1"
         id="feComposite19365" /><feGaussianBlur
         in="composite1"
         stdDeviation="0.3"
         result="blur"
         id="feGaussianBlur19367" /><feOffset
         dx="1"
         dy="1"
         result="offset"
         id="feOffset19369" /><feComposite
         in="SourceGraphic"
         in2="offset"
         operator="over"
         result="composite2"
         id="feComposite19371" /></filter><linearGradient
       inkscape:collect="always"
       xlink:href="#linearGradient9188"
       id="linearGradient9190"
       x1="6.8532243"
       y1="47.684002"
       x2="6.8448586"
       y2="56.698555"
       gradientUnits="userSpaceOnUse"
       gradientTransform="matrix(1.8919771,1.8921424,1.8919771,-1.8921424,-84.403491,98.23552)" /><linearGradient
       inkscape:collect="always"
       xlink:href="#linearGradient3276"
       id="linearGradient3278"
       x1="24.646854"
       y1="14.892887"
       x2="29.783232"
       y2="43.546116"
       gradientUnits="userSpaceOnUse"
       gradientTransform="translate(0,4.7625002)" /><linearGradient
       inkscape:collect="always"
       xlink:href="#linearGradient4798"
       id="linearGradient4800"
       x1="34.833752"
       y1="33.004112"
       x2="36.678394"
       y2="44.358952"
       gradientUnits="userSpaceOnUse"
       gradientTransform="translate(0.25504032,4.7264619)" /></defs><style
     id="style6939">.st0{opacity:0} .st0,.st1{fill:#f6f6f6} .st2{fill:none} .st3{fill:#424242} .st4{fill:#f0eff1}</style><style
     id="style38292">.icon-canvas-transparent{opacity:0;fill:#f6f6f6} .icon-vs-out{fill:#f6f6f6} .icon-vs-fg{fill:#f0eff1} .icon-vs-action-blue{fill:#00539c}</style><image
     width="67.73333"
     height="67.73333"
     preserveAspectRatio="none"
     xlink:href="../Folder-Open-icon.png"
     id="image320"
     x="0"
     y="0"
     style="display:none" /><path
     style="display:inline;fill:url(#linearGradient3278);fill-opacity:1;stroke:#998f4c;stroke-width:2.64583;stroke-linecap:square;stroke-dasharray:none;stroke-opacity:1"
     d="M 50.366827,64.286827 50.832045,21.175062 27.853511,21.265522 25.990457,18.60709 5.4121707,18.68173 3.2371853,21.12861 3.2564013,64.254288 Z"
     id="path479"
     sodipodi:nodetypes="cccccccc" /><g
     id="g349"
     transform="matrix(0.24707881,0.24707881,-0.24707881,0.24707881,51.002387,-1.5236305)"><path
       id="path6882"
       style="color:#000000;display:inline;opacity:1;fill:url(#linearGradient9190);fill-opacity:1;stroke:#254ca4;stroke-width:3.02880962;stroke-linecap:round;stroke-linejoin:miter;stroke-dasharray:none;stroke-opacity:1"
       d="M 2.8403012,41.650867 C -0.24607577,29.609127 3.5007062,16.7145 9.5235262,10.533926 15.546347,4.3533566 23.540348,1.8337561 29.321489,2.2079754 c 5.781135,0.3742147 7.617915,0.9652194 13.140145,3.9178112 5.52225,2.9525917 9.87292,7.5506394 12.53491,10.1369594 L 65.692124,5.5662294 65.891474,37.85625 H 33.404925 L 44.338554,26.918254 c 0,0 -3.56567,-3.787174 -8.03047,-7.207957 -5.639652,-3.756494 -11.715774,-4.351299 -17.94165,1.434523 -5.962563,5.711631 -9.5775378,13.670698 -8.4817638,23.147299 0.9798908,8.474375 5.7393888,19.638421 5.7393888,19.638421 0,0 -9.7442148,-10.420653 -12.7837578,-22.279673 z"
       sodipodi:nodetypes="szzzcccccccscs"
       inkscape:label="Background" /><path
       id="path3104"
       style="color:#000000;display:inline;opacity:1;fill:none;fill-opacity:1;stroke:#63b7fd;stroke-width:3.02881;stroke-linecap:round;stroke-linejoin:miter;stroke-dasharray:none;stroke-opacity:0.75"
       inkscape:label="Background"
       d="M 27.972656,5.2109375 C 21.107133,5.4643765 14.444703,8.9648722 10.263393,14.402066 6.4565995,19.606561 4.861535,26.141784 4.7773438,32.517578 5.0644531,33.90625 5.3515625,35.294922 5.6386719,36.683594 6.3490472,35.34702 7.2211617,34.079706 7.8285261,32.699021 9.7230767,26.174823 13.871591,20.277425 19.486767,16.431987 c 3.871304,-2.543683 8.90268,-3.383085 13.311227,-1.822603 3.78255,1.207719 6.925681,3.751875 9.793259,6.413311 2.086748,1.885152 4.037362,3.91294 6.002497,5.922617 -2.628026,2.627834 -5.255405,5.256315 -7.884766,7.882813 7.378256,0 14.756511,0 22.134766,0 -0.04561,-7.332678 -0.09107,-14.665357 -0.134766,-21.998047 -2.565208,2.567604 -5.131391,5.134234 -7.697265,7.701172 C 50.513926,16.128713 46.119148,11.409492 40.457803,8.4789552 37.703274,7.0258932 34.795824,5.6850734 31.648657,5.4370463 30.428046,5.2996996 29.19937,5.2556752 27.972656,5.2109375 Z" /></g><path
     style="fill:url(#linearGradient4800);fill-opacity:1;stroke:#998f4c;stroke-width:2.64583;stroke-linecap:square;stroke-dasharray:none;stroke-opacity:1"
     d="M 3.6260079,64.250655 12.142136,29.299044 63.718119,29.190973 54.45665,64.250656 Z"
     id="path4792"
     sodipodi:nodetypes="ccccc" /></svg>
