<?xml version="1.0" encoding="UTF-8" standalone="no"?>
<svg
   viewBox="0 0 16 16"
   enable-background="new 0 0 16 16"
   version="1.1"
   id="svg6"
   sodipodi:docname="Paste.svg"
   inkscape:version="1.2 (dc2aedaf03, 2022-05-15)"
   inkscape:export-filename="Paste.png"
   inkscape:export-xdpi="96"
   inkscape:export-ydpi="96"
   xmlns:inkscape="http://www.inkscape.org/namespaces/inkscape"
   xmlns:sodipodi="http://sodipodi.sourceforge.net/DTD/sodipodi-0.dtd"
   xmlns="http://www.w3.org/2000/svg"
   xmlns:svg="http://www.w3.org/2000/svg">
  <defs
     id="defs10" />
  <sodipodi:namedview
     id="namedview8"
     pagecolor="#ffffff"
     bordercolor="#000000"
     borderopacity="0.25"
     inkscape:showpageshadow="2"
     inkscape:pageopacity="0.0"
     inkscape:pagecheckerboard="0"
     inkscape:deskcolor="#d1d1d1"
     showgrid="true"
     inkscape:zoom="16"
     inkscape:cx="18.625"
     inkscape:cy="1.375"
     inkscape:window-width="1920"
     inkscape:window-height="1017"
     inkscape:window-x="-8"
     inkscape:window-y="-8"
     inkscape:window-maximized="1"
     inkscape:current-layer="svg6">
    <inkscape:grid
       type="xygrid"
       id="grid944" />
  </sodipodi:namedview>
  <style
     type="text/css"
     id="style2">.icon_x002D_asx_x002D_blue{fill:#0081E4;}</style>
  <path
     id="path4"
     style="fill:#996f00;fill-opacity:1"
     class="icon_x002D_asx_x002D_blue"
     d="M 0,2 V 16 H 8 V 15 H 1 V 3 H 3 V 2 Z m 11,0 v 1 h 2 v 3 h 1 V 2 Z"
     sodipodi:nodetypes="cccccccccccccccc" />
  <path
     class="light-yellow-10"
     d="M 13,3 V 15 H 0.99980095 L 1.000199,3 H 3.0056019 L 4,4 h 6 V 3 Z"
     id="path2032"
     sodipodi:nodetypes="ccccccccc"
     style="fill:#e6dbc0;fill-opacity:1" />
  <rect
     style="fill:#ffffff;fill-opacity:1;stroke:#0081e4;stroke-width:0.999864;stroke-opacity:1"
     id="rect998"
     width="7.0001359"
     height="9.0001354"
     x="8.4999323"
     y="6.4999318" />
  <path
     id="path1521"
     class="icon_x002D_asx_x002D_blue"
     d="M 7,0 C 5.8970011,0 5,0.897001 5,2 H 3 c 0,0 0,1.030109 0,3 h 8 V 2 H 9 C 9,0.897001 8.1029989,0 7,0 Z m 0,1 c 0.5509994,0 1,0.449001 1,1 v 1 h 2 V 4 H 4 V 3 H 6 V 2 C 6,1.449001 6.4490006,1 7,1 Z"
     style="fill:#595959;fill-opacity:1"
     sodipodi:nodetypes="sccccccsssccccccss" />
</svg>
