<?xml version="1.0" encoding="UTF-8" standalone="no"?>
<!-- Created with Inkscape (http://www.inkscape.org/) -->
<!-- Designed by Matteo nigro B-) -->

<svg
   width="256"
   height="256"
   viewBox="0 0 67.733332 67.733333"
   version="1.1"
   id="svg5"
   xml:space="preserve"
   inkscape:version="1.2 (dc2aedaf03, 2022-05-15)"
   sodipodi:docname="SchemeConfig.svg"
   inkscape:export-filename="SchemeConfig.png"
   inkscape:export-xdpi="12"
   inkscape:export-ydpi="12"
   xmlns:inkscape="http://www.inkscape.org/namespaces/inkscape"
   xmlns:sodipodi="http://sodipodi.sourceforge.net/DTD/sodipodi-0.dtd"
   xmlns:xlink="http://www.w3.org/1999/xlink"
   xmlns="http://www.w3.org/2000/svg"
   xmlns:svg="http://www.w3.org/2000/svg"><sodipodi:namedview
     id="namedview7"
     pagecolor="#ffffff"
     bordercolor="#000000"
     borderopacity="0.25"
     inkscape:showpageshadow="2"
     inkscape:pageopacity="0.0"
     inkscape:pagecheckerboard="0"
     inkscape:deskcolor="#d1d1d1"
     inkscape:document-units="mm"
     showgrid="false"
     inkscape:zoom="0.1767767"
     inkscape:cx="-62.225397"
     inkscape:cy="-933.38095"
     inkscape:window-width="1920"
     inkscape:window-height="1017"
     inkscape:window-x="-8"
     inkscape:window-y="-8"
     inkscape:window-maximized="1"
     inkscape:current-layer="svg5"
     showguides="true" /><defs
     id="defs2"><linearGradient
       inkscape:collect="always"
       id="linearGradient24094"><stop
         style="stop-color:#f1cd3c;stop-opacity:1;"
         offset="0"
         id="stop24090" /><stop
         style="stop-color:#f69c32;stop-opacity:1;"
         offset="1"
         id="stop24092" /></linearGradient><linearGradient
       inkscape:collect="always"
       id="linearGradient4541"><stop
         style="stop-color:#2e72e5;stop-opacity:1;"
         offset="0"
         id="stop4537" /><stop
         style="stop-color:#a5c5ff;stop-opacity:1;"
         offset="1"
         id="stop4539" /></linearGradient><linearGradient
       inkscape:collect="always"
       id="linearGradient38509"><stop
         style="stop-color:#5a5a5a;stop-opacity:1;"
         offset="0"
         id="stop38503" /><stop
         style="stop-color:#d9d9d9;stop-opacity:1;"
         offset="0.5"
         id="stop38505" /><stop
         style="stop-color:#5a5a5a;stop-opacity:1;"
         offset="1"
         id="stop38507" /></linearGradient><linearGradient
       inkscape:collect="always"
       id="linearGradient33874"><stop
         style="stop-color:#9a4248;stop-opacity:1;"
         offset="0"
         id="stop33868" /><stop
         style="stop-color:#d95f60;stop-opacity:1;"
         offset="0.5"
         id="stop33870" /><stop
         style="stop-color:#cf8876;stop-opacity:1;"
         offset="1"
         id="stop33872" /></linearGradient><linearGradient
       inkscape:collect="always"
       id="linearGradient23072"><stop
         style="stop-color:#c1a250;stop-opacity:1;"
         offset="0"
         id="stop23068" /><stop
         style="stop-color:#fde39b;stop-opacity:1;"
         offset="0.5"
         id="stop25836" /><stop
         style="stop-color:#c1a250;stop-opacity:1;"
         offset="1"
         id="stop23070" /></linearGradient><linearGradient
       inkscape:collect="always"
       id="linearGradient12694"><stop
         style="stop-color:#032c83;stop-opacity:1;"
         offset="0"
         id="stop12690" /><stop
         style="stop-color:#3263c8;stop-opacity:1;"
         offset="1"
         id="stop12692" /></linearGradient><linearGradient
       inkscape:collect="always"
       id="linearGradient1679"><stop
         style="stop-color:#dbad25;stop-opacity:1;"
         offset="0"
         id="stop1675" /><stop
         style="stop-color:#745715;stop-opacity:1;"
         offset="1"
         id="stop1677" /></linearGradient><filter
       style="color-interpolation-filters:sRGB"
       inkscape:label="Drop Shadow"
       id="filter19373"
       x="-0.025663521"
       y="-0.035831481"
       width="1.0869708"
       height="1.1214288"><feFlood
         flood-opacity="0.384314"
         flood-color="rgb(0,0,0)"
         result="flood"
         id="feFlood19363" /><feComposite
         in="flood"
         in2="SourceGraphic"
         operator="in"
         result="composite1"
         id="feComposite19365" /><feGaussianBlur
         in="composite1"
         stdDeviation="0.3"
         result="blur"
         id="feGaussianBlur19367" /><feOffset
         dx="1"
         dy="1"
         result="offset"
         id="feOffset19369" /><feComposite
         in="SourceGraphic"
         in2="offset"
         operator="over"
         result="composite2"
         id="feComposite19371" /></filter><linearGradient
       inkscape:collect="always"
       xlink:href="#linearGradient1679"
       id="linearGradient1681"
       x1="41.097832"
       y1="51.760418"
       x2="76.361664"
       y2="69.174706"
       gradientUnits="userSpaceOnUse"
       gradientTransform="matrix(0.98190337,0,0,0.88482877,1.1855218,7.2508261)" /><linearGradient
       inkscape:collect="always"
       xlink:href="#linearGradient4541"
       id="linearGradient12696"
       x1="-54.014763"
       y1="26.506241"
       x2="-54.014763"
       y2="4.6836615"
       gradientUnits="userSpaceOnUse"
       gradientTransform="matrix(1.0669957,0,0,1.0669957,30.911802,34.446044)" /><linearGradient
       inkscape:collect="always"
       xlink:href="#linearGradient23072"
       id="linearGradient23074"
       x1="-35.468193"
       y1="-56.951607"
       x2="-35.468193"
       y2="-65.999992"
       gradientUnits="userSpaceOnUse" /><linearGradient
       inkscape:collect="always"
       xlink:href="#linearGradient33874"
       id="linearGradient32141"
       gradientUnits="userSpaceOnUse"
       x1="-22.184898"
       y1="-56.858063"
       x2="-22.184898"
       y2="-65.906448"
       gradientTransform="translate(39.950365)" /><linearGradient
       inkscape:collect="always"
       xlink:href="#linearGradient38509"
       id="linearGradient37121"
       gradientUnits="userSpaceOnUse"
       gradientTransform="translate(30.828446,0.01653647)"
       x1="-22.184898"
       y1="-56.858063"
       x2="-22.184898"
       y2="-65.906448" /><filter
       inkscape:collect="always"
       style="color-interpolation-filters:sRGB"
       id="filter15623"
       x="-0.020487293"
       y="-0.10236267"
       width="1.0409746"
       height="1.2047253"><feGaussianBlur
         inkscape:collect="always"
         stdDeviation="0.48523968"
         id="feGaussianBlur15625" /></filter><linearGradient
       inkscape:collect="always"
       xlink:href="#linearGradient12694"
       id="linearGradient2382"
       gradientUnits="userSpaceOnUse"
       gradientTransform="matrix(1.1084188,0,0,1.1084188,33.507645,34.051659)"
       x1="-40.647373"
       y1="22.209579"
       x2="-64.550613"
       y2="11.539659" /><filter
       inkscape:collect="always"
       style="color-interpolation-filters:sRGB"
       id="filter13234"
       x="-0.02231569"
       y="-0.024045814"
       width="1.0446314"
       height="1.0480916"><feGaussianBlur
         inkscape:collect="always"
         stdDeviation="0.40292314"
         id="feGaussianBlur13236" /></filter><linearGradient
       inkscape:collect="always"
       xlink:href="#linearGradient24094"
       id="linearGradient24096"
       x1="5.9046796"
       y1="54.844296"
       x2="65.708213"
       y2="54.844296"
       gradientUnits="userSpaceOnUse" /></defs><style
     id="style6939">.st0{opacity:0} .st0,.st1{fill:#f6f6f6} .st2{fill:none} .st3{fill:#424242} .st4{fill:#f0eff1}</style><style
     id="style38292">.icon-canvas-transparent{opacity:0;fill:#f6f6f6} .icon-vs-out{fill:#f6f6f6} .icon-vs-fg{fill:#f0eff1} .icon-vs-action-blue{fill:#00539c}</style><g
     id="g13224"
     transform="matrix(1.0423528,0,0,1.0423528,46.783583,-22.430663)"><path
       id="path2380"
       style="fill:url(#linearGradient2382);fill-opacity:1;stroke:none;stroke-width:2.53606;stroke-linecap:square;stroke-dasharray:none;stroke-opacity:1"
       d="M -44.443359,65.789062 H 3.7832031 L -44.443359,21.615234 Z m 17.280434,-15.914583 v 5.025391 h -5.027344 v -5.025391 z"
       sodipodi:nodetypes="ccccccccc" /><path
       id="path13228"
       style="mix-blend-mode:normal;fill:#000000;fill-opacity:0.449086;stroke:none;stroke-width:2.44128;stroke-linecap:square;stroke-dasharray:none;stroke-opacity:1;filter:url(#filter13234)"
       d="M -43.109522,64.492188 0.22391362,64.222958 C -14.638672,50.607616 -28.245657,37.890588 -43.109522,24.276642 c 0,13.614583 0,26.600963 0,40.215546 z m 26.854967,-7.339142 -17.47501,-0.448717 -0.08974,-15.03636 z"
       sodipodi:nodetypes="cccccccc" /><path
       id="path4782"
       style="fill:url(#linearGradient12696);fill-opacity:1;stroke:none;stroke-width:2.44128;stroke-linecap:square;stroke-dasharray:none;stroke-opacity:1"
       d="M -42.597143,63.467825 H -1.6346621 L -42.597143,25.94975 Z m 28.027158,-4.679654 H -36.056156 V 39.375787 Z"
       sodipodi:nodetypes="cccccccc" /></g><rect
     style="fill:url(#linearGradient1681);fill-opacity:1;stroke:none;stroke-width:0.641287;stroke-linecap:square;stroke-dasharray:none;stroke-opacity:1"
     id="rect1650"
     width="63.809376"
     height="16.983871"
     x="3.9022613"
     y="46.346115" /><g
     id="g41628"
     transform="matrix(0.35997998,-0.35997998,0.92388129,0.92388129,111.05742,69.549604)"><rect
       style="fill:url(#linearGradient23074);fill-opacity:1;stroke:#87725f;stroke-width:0.988;stroke-linecap:square;stroke-dasharray:none;stroke-opacity:1"
       id="rect21271"
       width="70.720253"
       height="9.5806427"
       x="-67.596771"
       y="-65.999992" /><path
       style="fill:#ffe8c4;fill-opacity:1;stroke:#87725f;stroke-width:0.987999;stroke-linecap:square;stroke-dasharray:none;stroke-opacity:1"
       d="m -68.57128,-56.679153 -19.91532,-4.258064 19.921233,-4.79203 z"
       id="path28247"
       sodipodi:nodetypes="cccc" /><path
       style="fill:#000000;fill-opacity:1;stroke:none;stroke-width:0.345768;stroke-linecap:square;stroke-dasharray:none;stroke-opacity:1"
       d="m -83.766924,-59.42495 -6.96972,-1.490185 6.97179,-1.677057 z"
       id="path30116"
       sodipodi:nodetypes="cccc" /><path
       style="fill:#000000;fill-opacity:1;stroke:#000000;stroke-width:1.26597;stroke-linecap:square;stroke-dasharray:none;stroke-opacity:1"
       d="M 2.1494825,-59.339942 H -66.600617"
       id="path30118"
       sodipodi:nodetypes="cc" /><rect
       style="fill:url(#linearGradient32141);fill-opacity:1;stroke:#945c5f;stroke-width:0.988;stroke-linecap:square;stroke-dasharray:none;stroke-opacity:1"
       id="rect32139"
       width="11.388047"
       height="9.5806427"
       x="10.666564"
       y="-65.999992" /><rect
       style="fill:url(#linearGradient37121);fill-opacity:1;stroke:none;stroke-width:0.988;stroke-linecap:square;stroke-dasharray:none;stroke-opacity:1"
       id="rect37119"
       width="6.5566454"
       height="10.572823"
       x="3.6144598"
       y="-66.496086" /><path
       style="fill:#000000;fill-opacity:1;stroke:#000000;stroke-width:1.25966;stroke-linecap:square;stroke-dasharray:none;stroke-opacity:0.619687"
       d="M 1.9781617,-63.573275 H -66.429296"
       id="path41619"
       sodipodi:nodetypes="cc" /></g><path
     id="path14894"
     style="mix-blend-mode:normal;fill:#000000;fill-opacity:0.48;stroke-width:3.37407;stroke-linecap:square;stroke-opacity:0.48;filter:url(#filter15623)"
     d="m 7.3847656,49.123047 c 0,3.630208 0,7.260417 0,10.890625 18.9446614,0 37.8893234,0 56.8339844,0 0.0031,-3.792317 0.0035,-7.584643 0.0098,-11.376953 -2.218099,0 -4.436198,0 -6.654297,0 0,1.481771 0,2.963541 0,4.445312 -0.530546,-0.07375 -1.351816,0.143222 -1.712891,-0.1 0,-1.448437 0,-2.896875 0,-4.345312 -2.217448,0 -4.434896,0 -6.652344,0 0,1.481771 0,2.963541 0,4.445312 -0.530545,-0.07375 -1.351815,0.143222 -1.71289,-0.1 0,-1.448437 0,-2.896875 0,-4.345312 -2.217448,0 -4.434896,0 -6.652344,0 0,1.481771 0,2.963541 0,4.445312 -0.530546,-0.07375 -1.351816,0.143222 -1.712891,-0.1 0,-1.448437 0,-2.896875 0,-4.345312 -2.217448,0 -4.434895,0 -6.652343,0 0,1.481771 0,2.963541 0,4.445312 -0.529729,-0.07392 -1.35074,0.143448 -1.710938,-0.1 0,-1.448437 0,-2.896875 0,-4.345312 -2.217448,0 -4.434896,0 -6.652344,0 0,1.481771 0,2.963541 0,4.445312 -0.530545,-0.07375 -1.351815,0.143222 -1.71289,-0.1 0,-1.448437 0,-2.896875 0,-4.345312 -2.217448,0 -4.434896,0 -6.652344,0 0,1.481771 0,2.963541 0,4.445312 -0.530546,-0.07375 -1.351816,0.143222 -1.712891,-0.1 0,-1.448437 0,-2.896875 0,-4.345312 -2.217448,0 -4.4348955,0 -6.6523434,0 0,0.162109 0,0.324219 0,0.486328 z"
     transform="matrix(1.0862444,0,0,1.0862444,-3.0870946,-4.166891)" /><path
     id="rect9786"
     style="fill:url(#linearGradient24096);fill-opacity:1;stroke-width:1.32291667;stroke-linecap:square;stroke-opacity:1;stroke:#87725f;stroke-dasharray:none"
     d="m 6.5661379,50.296942 v 9.094707 H 65.039567 l 0.0067,-9.094707 h -3.963006 v 4.826897 h -5.123266 v -4.826897 h -3.963007 v 4.826897 h -5.12328 v -4.826897 h -3.962446 v 4.826897 h -5.12384 v -4.826897 h -3.962446 v 4.826897 h -5.12328 v -4.826897 h -3.962985 v 4.826897 H 19.61543 v -4.826897 h -3.963005 v 4.826897 h -5.123281 v -4.826897 z"
     sodipodi:nodetypes="ccccccccccccccccccccccccccccc" /></svg>
