<?xml version="1.0" encoding="UTF-8" standalone="no"?>
<!-- Created with Inkscape (http://www.inkscape.org/) -->
<!-- Designed by Matteo nigro B-) -->

<svg
   width="256"
   height="256"
   viewBox="0 0 67.733332 67.733333"
   version="1.1"
   id="svg5"
   xml:space="preserve"
   inkscape:version="1.2 (dc2aedaf03, 2022-05-15)"
   sodipodi:docname="Undo2.svg"
   inkscape:export-filename="Undo.png"
   inkscape:export-xdpi="12"
   inkscape:export-ydpi="12"
   xmlns:inkscape="http://www.inkscape.org/namespaces/inkscape"
   xmlns:sodipodi="http://sodipodi.sourceforge.net/DTD/sodipodi-0.dtd"
   xmlns:xlink="http://www.w3.org/1999/xlink"
   xmlns="http://www.w3.org/2000/svg"
   xmlns:svg="http://www.w3.org/2000/svg"><sodipodi:namedview
     id="namedview7"
     pagecolor="#ffffff"
     bordercolor="#000000"
     borderopacity="0.25"
     inkscape:showpageshadow="2"
     inkscape:pageopacity="0.0"
     inkscape:pagecheckerboard="0"
     inkscape:deskcolor="#d1d1d1"
     inkscape:document-units="mm"
     showgrid="false"
     inkscape:zoom="0.74564395"
     inkscape:cx="140.81788"
     inkscape:cy="-77.785114"
     inkscape:window-width="1920"
     inkscape:window-height="1017"
     inkscape:window-x="-8"
     inkscape:window-y="-8"
     inkscape:window-maximized="1"
     inkscape:current-layer="svg5"
     showguides="true" /><defs
     id="defs2"><linearGradient
       inkscape:collect="always"
       id="linearGradient9188"><stop
         style="stop-color:#2967d5;stop-opacity:1;"
         offset="0"
         id="stop9184" /><stop
         style="stop-color:#63b7fd;stop-opacity:1;"
         offset="1"
         id="stop9186" /></linearGradient><filter
       style="color-interpolation-filters:sRGB"
       inkscape:label="Drop Shadow"
       id="filter19373"
       x="-0.025663521"
       y="-0.035831481"
       width="1.0869708"
       height="1.1214288"><feFlood
         flood-opacity="0.384314"
         flood-color="rgb(0,0,0)"
         result="flood"
         id="feFlood19363" /><feComposite
         in="flood"
         in2="SourceGraphic"
         operator="in"
         result="composite1"
         id="feComposite19365" /><feGaussianBlur
         in="composite1"
         stdDeviation="0.3"
         result="blur"
         id="feGaussianBlur19367" /><feOffset
         dx="1"
         dy="1"
         result="offset"
         id="feOffset19369" /><feComposite
         in="SourceGraphic"
         in2="offset"
         operator="over"
         result="composite2"
         id="feComposite19371" /></filter><linearGradient
       inkscape:collect="always"
       xlink:href="#linearGradient9188"
       id="linearGradient9190"
       x1="6.8532243"
       y1="47.684002"
       x2="6.8448586"
       y2="56.698555"
       gradientUnits="userSpaceOnUse"
       gradientTransform="matrix(-1.8919724,1.8919724,-1.8919724,-1.8919724,152.02624,98.224789)" /></defs><style
     id="style6939">.st0{opacity:0} .st0,.st1{fill:#f6f6f6} .st2{fill:none} .st3{fill:#424242} .st4{fill:#f0eff1}</style><style
     id="style38292">.icon-canvas-transparent{opacity:0;fill:#f6f6f6} .icon-vs-out{fill:#f6f6f6} .icon-vs-fg{fill:#f0eff1} .icon-vs-action-blue{fill:#00539c}</style><path
     id="path6882"
     style="color:#000000;display:inline;opacity:1;fill:url(#linearGradient9190);fill-opacity:1;stroke:#254ca4;stroke-width:2.64583333;stroke-linecap:round;stroke-linejoin:miter;stroke-dasharray:none;stroke-opacity:1"
     d="M 64.782664,41.645218 C 67.869033,29.604561 64.12226,16.711093 58.099456,10.531075 52.076649,4.3510604 44.082668,1.8316864 38.301541,2.2058721 32.520417,2.5800531 30.68365,3.1710047 25.161422,6.123331 19.639194,9.0756573 15.288535,13.673292 12.626554,16.259379 L 1.9309991,5.5638242 1.7316476,37.850942 H 34.218115 L 23.284512,26.913929 c 0,0 3.565662,-3.786833 8.030453,-7.207309 5.639637,-3.756156 11.715744,-4.350908 17.941605,1.434394 5.962548,5.711118 9.577514,13.669469 8.481742,23.145218 -0.979888,8.473614 -5.739374,19.636655 -5.739374,19.636655 0,0 9.744191,-10.419716 12.783726,-22.277669 z"
     sodipodi:nodetypes="szzzcccccccscs"
     inkscape:label="Background" /><path
     id="path879"
     style="color:#000000;display:inline;opacity:1;fill:none;fill-opacity:1;stroke:#63b7fd;stroke-width:2.64583;stroke-linecap:round;stroke-linejoin:miter;stroke-dasharray:none;stroke-opacity:0.752941"
     inkscape:label="Background"
     d="M 38.292969,4.8515625 C 34.56255,4.9973428 30.83211,5.9155861 27.598468,7.8169158 22.252059,10.48882 17.901542,14.683678 13.731494,18.881192 13.286419,19.108229 12.83667,20.216447 12.395174,19.768452 9.7765857,17.15216 7.1568568,14.537009 4.5390625,11.919922 4.4915235,19.681636 4.4467905,27.443369 4.3984375,35.205078 H 27.828125 c -2.756754,-2.757569 -5.511605,-5.517041 -8.267578,-8.27539 4.211083,-4.151727 8.278071,-8.718937 13.698586,-11.315536 4.358538,-1.961827 9.723368,-1.915679 13.818437,0.678163 4.413089,2.502808 7.697395,6.611071 10.108425,10.953702 1.840745,3.460526 2.892038,7.197983 3.257135,11.08027 0.182335,1.615591 0.381962,5.234393 0.381962,5.234393 0,0 1.318985,-2.504999 1.694467,-3.977548 C 63.860407,33.166854 63.257212,26.371834 60.964844,20.242188 59.418997,16.189024 56.872872,12.467929 53.361436,9.8750316 49.072242,6.6478662 43.706112,4.6180661 38.292969,4.8515625 Z"
     sodipodi:nodetypes="ccccccccccccccccc" /></svg>
